<?xml version="1.0" standalone="no"?>
<!DOCTYPE svg PUBLIC "-//W3C//DTD SVG 20010904//EN"
 "http://www.w3.org/TR/2001/REC-SVG-20010904/DTD/svg10.dtd">
<svg version="1.0" xmlns="http://www.w3.org/2000/svg"
 width="160.000000pt" height="160.000000pt" viewBox="0 0 160.000000 160.000000"
 preserveAspectRatio="xMidYMid meet">
<metadata>
Created by potrace 1.14, written by Peter Selinger 2001-2017
</metadata>
<g transform="translate(0.000000,160.000000) scale(0.100000,-0.100000)"
fill="#000000" stroke="none">
<path d="M744 1448 c-4 -6 -2 -14 4 -16 15 -5 16 -122 2 -122 -5 0 -10 -9 -10
-20 0 -17 7 -20 40 -20 41 0 52 14 29 37 -7 7 -9 19 -5 28 10 27 46 0 46 -34
0 -23 5 -30 25 -33 13 -3 27 -3 30 0 8 9 6 42 -4 42 -16 0 -19 40 -5 69 27 54
-6 81 -96 81 -27 0 -52 -5 -56 -12z m111 -48 c0 -23 -49 -20 -53 3 -3 15 2 18
25 15 17 -2 28 -9 28 -18z"/>
<path d="M570 1420 c-41 -15 -76 -32 -78 -38 -2 -6 2 -20 8 -31 11 -22 40 -18
40 4 0 8 4 16 9 19 11 7 50 -101 40 -111 -4 -4 -4 -14 0 -22 7 -11 15 -11 45
-1 40 13 45 24 19 39 -18 9 -59 108 -49 118 3 3 12 0 20 -6 18 -15 36 -6 36
17 0 38 -14 39 -90 12z"/>
<path d="M1010 1345 c-30 -30 -60 -55 -66 -55 -28 0 -21 -28 11 -43 35 -17 50
-11 39 16 -9 24 13 29 41 11 l26 -17 -22 -20 -22 -20 27 -14 c38 -20 50 -12
51 33 1 21 5 63 9 93 6 41 5 55 -5 62 -24 15 -33 10 -89 -46z m56 -19 c-4 -17
-11 -23 -21 -20 -12 5 -12 9 3 29 21 28 27 25 18 -9z"/>
<path d="M1190 1247 c-14 -7 -33 -29 -43 -49 -16 -33 -17 -40 -3 -71 16 -39
41 -57 81 -57 20 0 26 4 23 17 -2 10 -12 19 -23 21 -48 9 -61 56 -24 93 15 15
28 19 47 14 33 -8 32 -7 37 -33 8 -42 19 -54 38 -39 17 11 17 15 3 49 -26 62
-79 84 -136 55z"/>
<path d="M290 1221 c-24 -24 -28 -34 -24 -67 6 -48 37 -82 81 -90 103 -19 149
109 61 170 -36 26 -85 20 -118 -13z m105 -35 c28 -28 24 -62 -11 -78 -47 -22
-97 39 -67 81 19 28 48 26 78 -3z"/>
<path d="M1380 1046 c0 -15 -83 -40 -108 -32 -27 9 -41 -6 -35 -37 7 -34 29
-46 46 -25 18 23 47 30 47 13 0 -8 -5 -15 -12 -15 -6 0 -8 -3 -5 -7 9 -8 -22
-43 -39 -43 -23 0 0 -55 25 -58 14 -2 21 0 17 6 -5 9 30 82 40 82 2 0 20 -11
40 -25 47 -32 68 -33 60 -2 -3 12 -6 27 -6 34 0 6 -8 9 -19 6 -23 -6 -83 26
-74 40 3 5 21 6 39 2 37 -7 42 3 24 49 -10 27 -40 36 -40 12z"/>
<path d="M886 1023 c4 -16 8 -44 8 -63 1 -31 -2 -35 -24 -34 -54 3 -53 2 -46
43 6 38 6 39 -29 43 -45 5 -57 -9 -46 -50 7 -22 6 -32 -3 -35 -26 -10 -38 10
-35 57 2 25 2 47 -1 47 -13 3 -276 5 -285 2 -16 -5 -6 -153 10 -153 45 0 69
-94 43 -168 -15 -42 -25 -52 -45 -45 -9 3 -11 0 -7 -10 3 -8 13 -13 23 -10 13
3 22 -5 31 -27 16 -38 63 -70 105 -70 34 0 93 32 101 55 8 19 24 19 24 0 0
-22 41 -55 69 -55 34 1 60 22 71 57 7 23 8 24 9 6 1 -30 39 -63 71 -63 79 0
95 127 17 143 -12 3 -3 4 21 4 l43 -1 -2 -63 c-1 -35 0 -66 3 -68 3 -3 44 -5
92 -3 l86 3 -56 63 c-31 34 -59 60 -63 58 -9 -6 3 76 16 119 12 36 5 102 -11
113 -6 4 -31 7 -56 7 -45 0 -45 0 -44 35 0 19 4 47 8 63 l8 27 -57 0 -57 0 8
-27z m-396 -83 c0 -26 -5 -40 -16 -44 -22 -9 -26 -3 -31 40 -4 38 9 56 34 47
8 -3 13 -21 13 -43z m125 0 l0 -45 -50 0 -50 0 -3 39 c-4 47 8 57 63 53 l40
-3 0 -44z m62 38 c17 -24 16 -75 -3 -82 -24 -9 -37 7 -36 43 1 48 19 65 39 39z
m73 -288 c0 -6 -4 -10 -10 -10 -5 0 -16 -12 -24 -27 l-15 -28 -1 35 c0 31 3
36 25 38 14 1 25 -3 25 -8z m133 -19 l-28 -28 -22 21 c-13 12 -23 23 -23 26 0
3 23 7 51 8 l50 2 -28 -29z m156 -39 c1 -7 -3 -10 -9 -7 -5 3 -10 21 -9 38 1
31 1 31 9 7 4 -14 8 -31 9 -38z m-235 38 c26 -9 36 -30 15 -30 -5 0 -7 6 -3
13 6 10 4 10 -7 0 -7 -7 -21 -13 -31 -13 -10 0 -18 -4 -18 -8 0 -4 -8 -8 -19
-9 -14 -1 -17 3 -14 18 5 16 8 17 21 7 12 -10 14 -10 8 0 -8 13 0 32 14 32 5
0 20 -4 34 -10z m133 -3 c-5 7 0 9 13 6 15 -4 18 -9 10 -18 -8 -10 -6 -13 7
-11 16 1 18 -8 14 -56 -1 -8 -8 -5 -18 6 -14 14 -15 20 -5 23 23 9 -18 30 -50
27 -15 -2 -28 1 -28 7 0 6 4 8 9 5 5 -3 12 1 15 10 5 14 9 14 23 3 9 -8 14 -9
10 -2z m133 -34 c0 -7 -4 -13 -10 -13 -5 0 -10 6 -10 14 0 8 -3 23 -6 33 -5
16 -4 16 10 -1 9 -11 16 -26 16 -33z m45 -11 c-9 -10 -33 7 -38 28 l-6 22 25
-23 c13 -12 22 -24 19 -27z m-546 14 c7 -8 11 -26 9 -39 -3 -21 -6 -23 -27
-16 -23 9 -23 10 -6 37 18 27 18 27 -2 10 -25 -23 -30 -22 -43 2 -10 18 -8 20
23 20 19 0 40 -6 46 -14z m99 -5 c-7 -11 -16 -17 -21 -14 -5 3 -3 9 4 13 8 6
5 10 -12 13 -19 3 -18 5 9 6 29 1 31 -1 20 -18z m-35 -19 c17 -15 17 -16 -5
-29 -34 -19 -38 -16 -38 23 0 37 6 38 43 6z m190 9 c3 8 6 1 6 -15 1 -24 -1
-27 -14 -16 -8 7 -15 20 -15 29 0 13 2 13 9 2 7 -11 9 -11 14 0z m79 0 c7 10
8 8 5 -8 -3 -15 -1 -20 9 -16 8 3 14 -1 14 -8 0 -12 2 -12 9 0 7 10 10 10 16
1 4 -7 2 -16 -5 -20 -26 -16 -83 21 -72 48 4 12 7 13 10 3 4 -11 6 -11 14 0z
m-99 -28 c13 -8 7 -21 -12 -26 -26 -6 -46 7 -35 24 6 12 5 12 -9 0 -15 -12
-17 -11 -17 4 0 14 6 15 33 10 17 -4 35 -9 40 -12z m245 -5 c2 -8 -4 -15 -13
-15 -8 0 -15 9 -15 20 0 22 23 18 28 -5z m46 6 c4 -9 4 -19 2 -22 -10 -9 -36
8 -36 23 0 20 26 19 34 -1z m56 -4 c11 -21 4 -25 -24 -14 -9 3 -16 12 -16 20
0 21 28 17 40 -6z"/>
<path d="M770 659 c0 -5 5 -7 10 -4 6 3 10 8 10 11 0 2 -4 4 -10 4 -5 0 -10
-5 -10 -11z"/>
<path d="M204 1030 c-28 -11 -33 -20 -50 -83 -14 -53 -6 -83 17 -60 15 15 108
-12 125 -36 16 -21 31 -7 40 38 7 34 7 34 -25 28 -23 -5 -33 -3 -38 9 -8 21 2
28 44 29 31 0 38 4 44 27 5 21 3 27 -12 31 -10 3 -19 1 -19 -4 0 -12 -57 -11
-65 1 -11 19 -40 28 -61 20z m34 -64 c5 -24 -10 -38 -31 -30 -20 7 -22 25 -5
42 16 16 32 10 36 -12z"/>
<path d="M379 545 c-1 -3 -2 -9 -3 -14 -2 -16 -100 -88 -113 -84 -23 8 -14
-14 28 -67 39 -50 41 -51 60 -34 26 23 24 36 -4 29 -18 -5 -28 0 -41 20 -16
25 -16 27 6 46 13 10 35 27 51 36 15 10 27 21 27 25 0 4 7 5 15 2 18 -7 19 5
1 29 -13 17 -25 22 -27 12z"/>
<path d="M1183 505 c-40 -17 -57 -48 -50 -91 8 -50 50 -84 102 -84 34 0 75 42
75 76 0 22 3 24 14 15 9 -7 17 -8 20 -2 6 9 -48 62 -62 60 -14 -1 -52 -58 -43
-63 5 -3 14 1 21 9 18 22 30 18 30 -7 -1 -70 -86 -83 -123 -19 -25 41 -12 77
33 88 16 4 30 12 31 18 1 15 -13 15 -48 0z"/>
<path d="M505 368 c-22 -18 -51 -43 -65 -55 -14 -13 -30 -23 -37 -23 -21 0
-14 -18 10 -26 25 -8 33 -4 29 12 -4 18 26 25 53 12 27 -12 35 -52 13 -62 -9
-3 -7 -9 6 -20 24 -20 53 -22 39 -3 -11 13 -10 27 7 109 12 55 9 88 -7 88 -5
0 -26 -15 -48 -32z m35 -34 c-10 -45 -12 -47 -36 -29 -18 15 -18 16 11 40 17
14 31 25 31 25 1 0 -2 -16 -6 -36z"/>
<path d="M1036 385 c-11 -8 -17 -16 -13 -16 4 -1 12 -2 17 -3 11 -1 50 -79 50
-97 0 -5 -28 11 -62 36 -66 48 -74 51 -98 34 -12 -8 -12 -12 -2 -16 18 -7 72
-121 65 -139 -6 -17 10 -18 38 -3 11 5 17 14 14 20 -4 5 -11 7 -16 4 -5 -4 -9
-4 -9 -2 0 3 -11 30 -25 61 l-25 57 66 -51 c101 -76 116 -69 69 33 -18 39 -31
77 -28 84 7 17 -17 16 -41 -2z"/>
<path d="M665 298 c24 -42 31 -81 19 -112 -3 -9 -10 -13 -15 -10 -5 3 -9 0 -9
-6 0 -11 23 -22 45 -20 5 0 10 17 10 38 0 29 8 48 32 75 18 20 37 37 43 37 19
0 10 18 -12 24 -35 9 -41 7 -35 -9 3 -7 -2 -24 -13 -37 l-18 -23 -13 29 c-11
23 -11 30 -1 34 21 7 2 22 -28 22 l-29 0 24 -42z"/>
<path d="M820 322 c0 -4 4 -12 10 -18 14 -14 24 -144 10 -144 -6 0 -8 -4 -5
-10 3 -5 16 -8 28 -6 12 3 26 5 31 5 5 1 2 9 -6 19 -17 18 -30 142 -16 142 4
0 8 5 8 10 0 6 -13 10 -30 10 -16 0 -30 -4 -30 -8z"/>
</g>
</svg>
