<svg width="54" height="41" viewBox="0 0 54 41" fill="none" xmlns="http://www.w3.org/2000/svg">
<path d="M45.5356 4.23761C45.5208 4.20932 45.4963 4.18716 45.4664 4.17509C42.0115 2.61279 38.3655 1.49876 34.6198 0.860856C34.5858 0.854621 34.5507 0.859119 34.5194 0.873711C34.4881 0.888304 34.4623 0.912247 34.4456 0.942136C33.9491 1.83021 33.4984 2.74242 33.0953 3.67526C29.0576 3.07119 24.9506 3.07119 20.9129 3.67526C20.5071 2.74005 20.0492 1.82762 19.5413 0.942136C19.5239 0.912896 19.4979 0.889505 19.4668 0.875007C19.4357 0.86051 19.4009 0.855579 19.3669 0.860856C15.6208 1.49742 11.9747 2.61154 8.5202 4.17518C8.49063 4.18753 8.46568 4.20863 8.44879 4.23556C1.54054 14.4033 -0.351894 24.3211 0.576468 34.1161C0.57908 34.1401 0.586563 34.1633 0.598473 34.1844C0.610383 34.2055 0.626477 34.224 0.645796 34.2389C4.66841 37.1743 9.16775 39.415 13.9518 40.8653C13.9855 40.8752 14.0215 40.8748 14.0549 40.864C14.0883 40.8532 14.1176 40.8326 14.1388 40.8049C15.1663 39.427 16.0767 37.9679 16.8609 36.4424C16.8716 36.4215 16.8778 36.3985 16.8789 36.3751C16.88 36.3517 16.8761 36.3282 16.8674 36.3064C16.8587 36.2846 16.8453 36.2648 16.8283 36.2484C16.8113 36.232 16.7909 36.2193 16.7685 36.2113C15.3328 35.6699 13.9429 35.0172 12.6117 34.2594C12.5876 34.2454 12.5673 34.2257 12.5526 34.2022C12.538 34.1786 12.5294 34.1518 12.5278 34.1242C12.5261 34.0966 12.5314 34.069 12.5431 34.0439C12.5548 34.0188 12.5726 33.9969 12.595 33.9802C12.8743 33.774 13.1538 33.5594 13.4205 33.3427C13.4442 33.3235 13.4728 33.3112 13.5033 33.3071C13.5337 33.3031 13.5647 33.3075 13.5927 33.3199C22.3134 37.2424 31.7548 37.2424 40.3724 33.3199C40.4004 33.3067 40.4317 33.3017 40.4626 33.3054C40.4935 33.3091 40.5226 33.3213 40.5467 33.3407C40.8135 33.5574 41.0929 33.774 41.3743 33.9802C41.3968 33.9968 41.4147 34.0185 41.4266 34.0435C41.4385 34.0685 41.444 34.0961 41.4426 34.1237C41.4411 34.1513 41.4328 34.1781 41.4183 34.2018C41.4038 34.2254 41.3837 34.2452 41.3596 34.2594C40.0315 35.0236 38.6403 35.6758 37.2008 36.2092C37.1785 36.2176 37.1582 36.2305 37.1413 36.2472C37.1243 36.2638 37.1111 36.2838 37.1026 36.3058C37.094 36.3279 37.0903 36.3514 37.0916 36.3749C37.0929 36.3985 37.0993 36.4215 37.1102 36.4424C37.9075 37.9594 38.8166 39.4166 39.8302 40.8025C39.8508 40.8309 39.8799 40.8522 39.9135 40.8635C39.947 40.8747 39.9833 40.8752 40.0172 40.865C44.8098 39.4197 49.317 37.1788 53.3447 34.2389C53.3643 34.2248 53.3806 34.2067 53.3926 34.1859C53.4045 34.165 53.4119 34.1419 53.414 34.1181C54.5254 22.7941 51.5533 12.9576 45.5356 4.23761ZM18.1632 28.1519C15.5377 28.1519 13.3743 25.7772 13.3743 22.8608C13.3743 19.9444 15.4957 17.5696 18.1632 17.5696C20.8516 17.5696 22.9941 19.9651 22.9521 22.8607C22.9521 25.7772 20.8306 28.1519 18.1632 28.1519ZM35.8696 28.1519C33.2441 28.1519 31.0807 25.7772 31.0807 22.8608C31.0807 19.9444 33.2021 17.5696 35.8696 17.5696C38.5581 17.5696 40.7005 19.9651 40.6585 22.8607C40.6585 25.7772 38.5581 28.1519 35.8696 28.1519Z" fill="#3743CB"/>
</svg>
