<?xml version="1.0" standalone="no"?>
<!DOCTYPE svg PUBLIC "-//W3C//DTD SVG 20010904//EN"
 "http://www.w3.org/TR/2001/REC-SVG-20010904/DTD/svg10.dtd">
<svg version="1.0" xmlns="http://www.w3.org/2000/svg"
 width="2048.000000pt" height="2048.000000pt" viewBox="0 0 2048.000000 2048.000000"
 preserveAspectRatio="xMidYMid meet">
<metadata>
Created by potrace 1.14, written by Peter Selinger 2001-2017
</metadata>
<g transform="translate(0.000000,2048.000000) scale(0.100000,-0.100000)"
fill="#000000" stroke="none">
<path d="M10801 18051 c-15 -29 -20 -102 -8 -107 16 -5 57 -12 80 -13 13 -1
16 -7 13 -28 -3 -16 -7 -48 -11 -73 -3 -25 -8 -63 -12 -85 -3 -22 -7 -51 -8
-65 -3 -37 -45 -343 -50 -360 -2 -8 -6 -40 -10 -71 -3 -31 -8 -67 -10 -79 -2
-12 -7 -48 -11 -79 -3 -31 -8 -65 -10 -76 -2 -11 -7 -47 -10 -80 -4 -33 -11
-63 -16 -66 -5 -3 -29 -3 -53 1 -50 8 -51 7 -60 -73 -5 -40 -4 -47 12 -48 10
0 29 -2 43 -4 14 -2 63 -8 110 -15 97 -13 119 -16 178 -25 23 -4 42 -3 43 2 0
4 2 17 4 28 3 11 6 35 7 54 3 32 1 34 -32 38 -61 7 -62 8 -55 64 4 29 8 59 10
68 1 9 6 41 10 71 4 30 9 62 10 70 2 8 6 42 10 75 8 70 11 77 33 71 10 -3 40
-8 67 -11 61 -8 112 -22 142 -41 35 -22 57 -75 108 -264 26 -96 54 -198 62
-227 16 -60 16 -60 173 -78 25 -3 57 -8 71 -10 23 -4 27 -1 33 26 10 50 7 89
-6 94 -7 2 -31 7 -53 10 -38 5 -55 18 -55 42 0 26 -94 341 -113 378 -11 22
-18 42 -16 45 2 3 25 13 51 22 26 9 61 26 78 38 66 47 116 179 127 335 17 260
-83 353 -432 399 -22 3 -74 11 -115 16 -41 6 -93 13 -116 16 -23 2 -78 11
-123 18 -73 11 -83 11 -90 -3z m372 -186 c12 -1 47 -5 77 -9 135 -17 208 -56
230 -122 15 -45 10 -176 -8 -234 -30 -92 -80 -135 -163 -139 -41 -2 -176 12
-234 23 -11 3 -32 5 -46 5 -26 1 -26 2 -18 54 5 28 11 75 14 102 3 28 8 57 10
65 2 8 7 44 10 80 4 36 9 72 10 82 2 9 7 37 10 63 l7 46 39 -6 c22 -4 49 -8
62 -10z"/>
<path d="M9977 18043 c-1 0 -58 -4 -127 -8 -121 -6 -177 -9 -345 -19 -44 -3
-132 -8 -195 -12 -140 -8 -193 -11 -203 -13 -4 0 -5 -47 -1 -103 3 -57 7 -128
8 -158 l3 -55 54 -1 c82 -1 84 1 80 100 l-3 86 69 1 c37 1 95 2 127 3 69 1 60
22 70 -174 4 -69 9 -148 11 -175 2 -28 6 -111 10 -185 3 -74 8 -151 10 -170 2
-19 7 -98 10 -175 4 -76 8 -142 11 -146 9 -15 -24 -26 -81 -28 -33 -2 -62 -4
-65 -6 -3 -2 -3 -30 0 -62 5 -57 5 -58 35 -57 52 3 246 14 345 20 52 4 98 8
102 10 4 3 5 17 3 32 -2 15 -4 41 -4 58 l-1 30 -75 -4 -75 -4 -1 39 c-1 21 -3
49 -4 63 -1 14 -5 93 -9 175 -4 83 -9 166 -11 185 -2 19 -6 91 -9 160 -4 69
-8 154 -11 190 -17 236 -17 240 -3 241 69 2 180 10 211 14 34 4 37 3 39 -23 1
-15 2 -34 4 -42 1 -8 2 -37 3 -63 l1 -48 68 3 67 4 -3 89 c-2 50 -5 113 -7
140 -2 28 -4 60 -4 73 -1 20 -5 22 -52 20 -28 -2 -51 -4 -52 -5z"/>
<path d="M12665 17328 c-137 -178 -253 -327 -257 -333 -5 -5 -66 -83 -135
-173 -106 -136 -130 -162 -147 -158 -12 3 -30 8 -41 11 -17 5 -23 -2 -39 -49
-11 -31 -17 -58 -15 -59 2 -2 40 -16 84 -31 44 -16 121 -43 171 -61 l92 -33
20 56 c21 57 21 72 -2 72 -8 0 -28 6 -45 13 l-31 13 52 70 c29 38 57 74 63 80
5 6 21 27 35 47 19 28 30 35 45 31 11 -4 74 -26 140 -49 66 -24 162 -58 212
-75 51 -18 91 -36 88 -40 -2 -3 -5 -70 -6 -148 0 -78 -2 -142 -2 -142 -1 0
-24 9 -52 19 l-50 19 -21 -57 c-24 -62 -23 -65 41 -82 22 -6 54 -17 70 -24 82
-35 217 -77 224 -69 5 5 15 31 24 57 15 45 15 48 -1 53 -9 3 -27 11 -40 17
l-23 11 6 225 c3 124 7 298 10 386 16 563 17 655 3 655 -7 0 -55 16 -106 35
-51 19 -98 35 -105 35 -8 0 -125 -145 -262 -322z m309 -25 c-13 -478 -13 -478
-26 -475 -12 3 -150 51 -263 92 -27 10 -58 21 -67 24 -10 3 -18 9 -18 13 0 4
46 67 103 139 56 72 140 181 187 242 46 62 85 112 86 112 1 0 0 -66 -2 -147z"/>
<path d="M7130 17463 c-68 -11 -181 -48 -259 -85 -47 -22 -88 -44 -91 -47 -3
-3 -21 -17 -40 -30 -128 -86 -172 -247 -124 -450 61 -260 195 -556 305 -672
113 -121 280 -138 509 -52 263 99 371 233 357 442 -7 104 -33 206 -94 366
-120 315 -225 468 -353 510 -49 16 -160 26 -210 18z m121 -181 c94 -38 184
-181 278 -444 111 -311 86 -452 -98 -544 -109 -54 -238 -67 -310 -29 -79 41
-152 150 -230 345 -75 187 -102 291 -103 386 -1 71 2 88 25 125 14 24 38 56
54 71 33 31 136 84 190 98 46 11 158 6 194 -8z"/>
<path d="M14254 16980 c-108 -54 -214 -174 -350 -396 -128 -207 -188 -360
-186 -472 1 -106 31 -170 117 -258 115 -116 279 -203 396 -209 56 -3 75 0 125
24 32 16 80 47 106 70 44 40 125 139 117 145 -2 1 -20 13 -39 26 -19 14 -41
30 -48 37 -22 21 -35 15 -80 -37 -96 -110 -181 -128 -306 -67 -123 61 -206
166 -206 259 0 104 117 340 275 553 100 136 164 178 270 179 59 0 80 -5 135
-31 72 -35 149 -102 175 -154 32 -61 26 -155 -15 -241 -16 -34 -16 -38 -1 -51
35 -30 93 -59 100 -51 27 30 212 347 208 357 -3 7 -28 24 -55 40 l-51 28 -28
-48 -27 -47 -8 37 c-37 177 -271 337 -494 337 -59 0 -81 -5 -130 -30z"/>
<path d="M10008 16340 c-12 -3 -53 -5 -90 -5 -38 0 -68 -2 -68 -5 0 -3 -26 -5
-58 -5 -31 1 -61 -2 -67 -4 -5 -3 -25 -6 -45 -6 -45 -2 -159 -16 -185 -22 -11
-3 -37 -5 -57 -6 -21 -1 -38 -4 -38 -7 0 -3 -12 -5 -27 -6 -16 0 -46 -4 -68
-8 -22 -4 -51 -9 -65 -11 -14 -2 -25 -4 -25 -5 0 -2 -13 -4 -30 -5 -16 -2 -31
-4 -32 -5 -4 -3 -10 -5 -68 -15 -27 -4 -54 -10 -60 -11 -5 -2 -26 -6 -45 -10
-19 -3 -42 -9 -50 -14 -8 -4 -23 -6 -32 -5 -10 2 -18 0 -18 -5 0 -5 -11 -7
-25 -5 -14 1 -25 -1 -25 -5 0 -4 -6 -7 -12 -7 -7 0 -33 -6 -58 -13 -25 -8 -52
-14 -60 -14 -8 -1 -19 -4 -25 -7 -15 -10 -78 -23 -94 -20 -7 1 -10 -2 -6 -8 3
-7 0 -8 -9 -5 -9 3 -16 1 -16 -5 0 -6 -3 -10 -7 -9 -19 5 -93 -15 -93 -25 0
-5 -3 -8 -6 -4 -3 3 -25 -1 -47 -10 -23 -8 -49 -16 -57 -18 -8 -2 -40 -13 -70
-25 -30 -12 -55 -21 -55 -20 0 1 -13 -4 -30 -11 -16 -7 -36 -13 -43 -15 -8 -1
-30 -10 -50 -20 -20 -10 -44 -19 -53 -21 -9 -1 -45 -16 -82 -32 -36 -16 -68
-27 -71 -24 -3 4 -6 1 -6 -5 0 -7 -4 -12 -9 -12 -5 0 -30 -10 -57 -22 -27 -12
-52 -21 -56 -20 -5 1 -8 -2 -8 -8 0 -5 -4 -10 -9 -10 -5 0 -20 -4 -33 -9 -13
-5 -27 -9 -32 -9 -5 0 -12 -4 -15 -9 -8 -12 -214 -113 -224 -110 -5 1 -13 -6
-18 -15 -6 -10 -16 -18 -23 -18 -6 0 -33 -13 -59 -30 -26 -16 -47 -27 -47 -24
0 3 -7 -2 -16 -10 -8 -9 -22 -16 -30 -16 -8 0 -14 -3 -14 -8 0 -7 -30 -25 -62
-38 -10 -3 -18 -11 -18 -16 0 -5 -5 -6 -10 -3 -6 3 -13 -1 -16 -9 -3 -9 -10
-14 -14 -11 -5 3 -16 -2 -24 -11 -9 -8 -16 -12 -16 -7 0 4 -5 0 -11 -9 -5 -10
-16 -18 -24 -18 -8 0 -18 -6 -22 -12 -4 -7 -28 -24 -53 -38 -25 -13 -54 -32
-64 -42 -11 -10 -24 -18 -29 -18 -4 0 -15 -6 -22 -12 -24 -22 -38 -33 -87 -66
-27 -18 -68 -46 -93 -63 -25 -17 -45 -35 -45 -40 0 -6 -4 -8 -9 -4 -6 3 -13 0
-18 -8 -4 -7 -37 -35 -73 -62 -92 -72 -111 -87 -143 -117 -16 -16 -32 -28 -36
-28 -3 0 -14 -8 -23 -17 -33 -37 -77 -73 -88 -73 -6 0 -8 -4 -5 -10 3 -5 2
-10 -3 -10 -4 0 -54 -44 -110 -98 -56 -53 -102 -96 -102 -95 0 2 -8 -5 -18
-14 -11 -10 -17 -21 -16 -24 2 -3 -8 -12 -21 -19 -14 -7 -27 -22 -31 -32 -3
-10 -10 -16 -15 -13 -5 4 -9 2 -9 -3 0 -5 -30 -41 -67 -80 -62 -65 -125 -135
-182 -201 -12 -13 -21 -28 -21 -33 0 -4 -7 -8 -17 -8 -9 0 -13 -3 -10 -6 4 -4
-8 -23 -26 -44 -58 -66 -77 -90 -77 -98 0 -4 -9 -14 -20 -22 -11 -8 -20 -18
-20 -22 0 -7 -28 -43 -57 -74 -7 -7 -13 -15 -13 -19 0 -6 -13 -23 -42 -55 -9
-10 -14 -21 -11 -24 4 -3 1 -6 -5 -6 -7 0 -12 -7 -12 -15 0 -8 -4 -15 -9 -15
-5 0 -12 -8 -15 -17 -3 -10 -17 -31 -31 -48 -15 -16 -36 -45 -47 -65 -12 -19
-27 -38 -32 -42 -6 -4 -7 -8 -3 -8 4 0 -1 -10 -13 -22 -11 -12 -20 -25 -20
-29 0 -10 -61 -102 -73 -110 -5 -3 -8 -10 -8 -15 1 -5 -6 -17 -14 -27 -8 -9
-15 -24 -15 -32 0 -8 -5 -15 -11 -15 -5 0 -7 -4 -4 -10 3 -5 2 -10 -4 -10 -6
0 -13 -11 -17 -25 -3 -14 -10 -25 -15 -25 -5 0 -9 -6 -9 -14 0 -7 -7 -19 -15
-26 -8 -7 -12 -16 -9 -21 3 -5 0 -9 -5 -9 -6 0 -11 -4 -11 -9 0 -4 -18 -41
-40 -81 -22 -40 -40 -79 -40 -86 0 -8 -4 -14 -10 -14 -5 0 -10 -6 -10 -14 0
-8 -7 -22 -16 -30 -8 -9 -12 -16 -8 -16 4 0 -1 -9 -11 -20 -10 -11 -15 -20
-12 -20 3 0 -10 -31 -29 -70 -18 -38 -34 -72 -34 -75 0 -11 -44 -100 -53 -106
-5 -3 -8 -9 -8 -13 2 -11 -2 -23 -22 -68 -10 -21 -17 -43 -17 -51 0 -7 -5 -18
-10 -23 -6 -6 -12 -19 -14 -30 -3 -10 -15 -41 -27 -69 -13 -27 -24 -54 -24
-60 -1 -5 -3 -13 -5 -17 -1 -5 -3 -11 -5 -15 -1 -5 -4 -15 -7 -23 -18 -46 -21
-57 -25 -74 -2 -11 -8 -25 -14 -33 -6 -7 -8 -13 -4 -13 4 0 2 -7 -5 -15 -7 -8
-10 -15 -7 -15 3 0 -1 -16 -9 -35 -8 -19 -11 -35 -8 -35 4 0 2 -6 -3 -12 -8
-11 -23 -58 -25 -78 0 -3 -5 -16 -10 -30 -6 -14 -12 -34 -13 -45 -2 -11 -10
-39 -19 -62 -8 -24 -13 -43 -11 -43 3 0 0 -11 -5 -26 -10 -25 -22 -79 -23
-101 0 -7 -5 -13 -10 -13 -6 0 -8 -2 -5 -6 3 -3 1 -22 -4 -42 -5 -20 -10 -44
-12 -52 -10 -59 -20 -97 -29 -107 -6 -9 -6 -13 2 -13 7 0 9 -5 6 -11 -4 -5 -9
-25 -12 -42 -7 -41 -11 -62 -13 -62 -2 0 -5 -16 -15 -80 -4 -22 -9 -53 -12
-70 -3 -16 -6 -41 -7 -55 -1 -14 -5 -30 -9 -37 -4 -6 -3 -14 3 -18 6 -4 7 -12
3 -18 -8 -14 -10 -21 -19 -97 -11 -101 -13 -125 -18 -192 -2 -36 -7 -71 -11
-77 -3 -6 -1 -11 5 -11 6 0 8 -5 3 -12 -4 -7 -8 -35 -10 -62 -1 -27 -4 -55 -7
-62 -3 -8 -1 -14 5 -14 6 0 7 -6 2 -12 -4 -7 -8 -74 -8 -148 -1 -75 -4 -141
-9 -148 -4 -6 -4 -12 1 -12 4 0 8 -48 9 -108 1 -155 21 -429 40 -567 4 -27 7
-65 8 -82 0 -18 3 -33 6 -33 3 0 6 -12 6 -27 1 -31 12 -118 14 -118 3 0 10
-38 14 -75 2 -19 5 -35 6 -35 2 0 7 -27 15 -85 4 -25 12 -51 17 -57 7 -9 7
-13 -1 -13 -8 0 -6 -10 5 -31 9 -18 11 -28 4 -24 -7 4 -5 -5 4 -23 8 -16 13
-32 10 -35 -3 -3 -2 -12 2 -19 5 -7 10 -24 12 -38 1 -14 5 -32 9 -40 8 -19 12
-39 15 -67 1 -13 6 -23 10 -23 4 0 5 -8 4 -17 -2 -10 1 -29 7 -43 12 -30 15
-39 21 -65 2 -11 5 -22 6 -25 1 -3 2 -9 1 -14 -1 -4 3 -13 8 -20 5 -6 12 -29
16 -51 4 -22 14 -52 22 -67 7 -16 11 -28 7 -28 -4 0 -1 -7 6 -15 7 -8 9 -15 5
-15 -4 0 -2 -6 4 -14 6 -8 11 -18 9 -22 -1 -5 4 -20 12 -34 7 -14 13 -26 12
-27 -3 -4 -3 -3 23 -78 14 -38 27 -74 29 -80 2 -5 7 -19 11 -30 5 -11 28 -69
53 -130 24 -60 53 -126 63 -146 10 -20 15 -39 12 -43 -4 -3 -1 -6 5 -6 7 0 12
-5 12 -10 0 -6 9 -30 20 -52 11 -23 20 -47 20 -54 0 -7 4 -14 8 -16 9 -3 52
-92 52 -107 0 -5 3 -11 8 -13 4 -1 31 -50 61 -108 29 -58 62 -117 73 -132 11
-16 17 -28 13 -28 -3 0 3 -10 15 -22 11 -12 20 -27 20 -34 0 -6 9 -23 21 -38
11 -14 17 -26 12 -26 -4 0 -3 -4 3 -8 6 -4 26 -33 45 -64 18 -32 37 -58 41
-58 5 0 8 -5 8 -11 0 -6 14 -31 32 -57 18 -26 30 -47 28 -47 -3 0 5 -11 18
-25 12 -13 22 -30 22 -37 0 -8 4 -11 10 -8 6 3 10 0 10 -7 0 -8 13 -29 30 -48
16 -19 29 -41 30 -47 0 -7 3 -13 8 -13 4 0 22 -23 40 -50 18 -28 37 -50 43
-50 6 0 7 -5 4 -10 -3 -6 1 -13 9 -16 9 -3 16 -12 16 -19 0 -7 3 -15 8 -17 4
-2 23 -23 42 -48 56 -72 64 -81 92 -111 15 -16 25 -29 21 -29 -3 0 6 -10 20
-23 15 -12 27 -26 27 -29 0 -4 12 -19 28 -35 15 -16 70 -76 122 -132 123 -134
260 -271 271 -271 5 0 9 -7 9 -15 0 -8 4 -15 10 -15 5 0 27 -17 48 -37 21 -21
69 -65 107 -98 38 -33 77 -68 87 -77 10 -10 20 -18 23 -18 3 0 19 -14 35 -30
16 -17 32 -30 35 -30 4 0 12 -6 19 -12 7 -7 28 -24 46 -38 18 -14 69 -53 114
-87 45 -34 93 -71 108 -83 14 -11 31 -20 36 -20 6 0 12 -4 14 -8 3 -10 225
-161 248 -170 8 -3 24 -14 34 -24 11 -10 26 -18 33 -18 7 0 13 -4 13 -10 0 -5
7 -10 15 -10 8 0 15 -5 15 -11 0 -5 5 -7 10 -4 6 3 10 2 10 -3 0 -5 18 -17 40
-27 22 -10 40 -23 40 -28 0 -6 3 -8 6 -4 3 3 24 -5 45 -19 21 -13 43 -24 49
-24 5 0 10 -4 10 -8 0 -5 16 -15 35 -22 20 -8 41 -20 47 -27 5 -7 14 -10 19
-7 5 3 9 1 9 -3 0 -5 17 -15 38 -22 20 -8 39 -17 42 -20 7 -10 76 -41 89 -41
6 0 11 -4 11 -9 0 -5 10 -13 23 -16 12 -4 47 -18 77 -33 30 -14 61 -27 69 -28
8 -2 18 -9 22 -16 5 -7 9 -9 9 -5 0 5 12 2 28 -6 15 -8 41 -20 57 -27 17 -7
38 -16 47 -21 10 -5 25 -9 33 -9 8 0 15 -5 15 -12 0 -6 3 -8 6 -5 4 3 16 1 28
-5 11 -7 30 -13 40 -15 11 -2 25 -8 33 -14 7 -6 13 -8 13 -4 0 4 6 3 13 -2 6
-6 75 -32 152 -58 77 -25 147 -49 155 -52 27 -11 74 -23 113 -30 15 -3 27 -10
27 -16 0 -6 3 -8 6 -5 3 4 20 2 37 -3 18 -6 39 -12 47 -14 8 -2 51 -13 95 -25
44 -11 91 -23 105 -26 14 -3 30 -6 35 -8 31 -8 132 -29 143 -29 6 0 12 -3 12
-6 0 -3 15 -7 33 -9 68 -7 92 -10 92 -12 0 -1 11 -3 25 -5 14 -2 36 -6 50 -9
67 -14 83 -17 120 -19 22 -1 40 -4 40 -7 0 -3 19 -6 43 -7 41 -1 59 -3 158
-18 25 -3 70 -8 100 -10 30 -2 92 -7 139 -10 47 -4 115 -8 151 -9 36 -1 71 -6
77 -10 7 -4 12 -3 12 2 0 7 53 9 70 2 14 -6 36 -4 47 3 7 5 18 5 25 1 17 -10
47 -11 76 -2 12 4 22 4 22 -1 0 -9 30 -8 47 2 6 4 15 3 18 -3 5 -8 11 -7 21 1
11 9 14 9 14 0 0 -7 5 -9 11 -6 6 4 52 9 102 11 150 6 328 20 462 37 17 3 57
8 90 12 91 11 157 20 205 30 14 3 39 7 55 10 17 3 44 8 60 12 17 3 44 7 60 9
17 1 30 3 30 4 0 1 7 3 15 5 8 2 53 12 100 24 47 11 96 23 110 25 14 3 25 5
25 6 0 1 11 4 25 7 38 7 55 11 58 13 2 3 6 4 47 14 17 4 37 10 45 13 14 6 37
11 67 17 7 1 16 5 19 9 4 4 18 7 31 7 12 0 23 4 23 9 0 4 8 8 18 7 9 0 33 6
52 13 19 8 37 15 40 15 18 6 88 29 100 33 8 4 17 7 20 8 30 7 88 30 98 38 6 5
12 7 12 4 0 -6 46 12 145 54 47 19 96 38 98 37 1 -1 13 5 27 12 14 8 28 13 33
12 4 -1 7 2 7 8 0 6 3 9 8 8 11 -2 33 8 222 100 96 47 177 89 178 94 2 4 7 6
12 3 5 -3 16 2 24 11 9 8 16 12 16 7 0 -4 4 -3 8 2 4 6 18 16 32 22 14 7 48
26 75 43 28 16 58 33 68 36 9 4 17 10 17 15 0 5 9 9 20 9 11 0 20 5 20 11 0 5
4 8 9 5 5 -4 11 -2 13 3 4 12 114 81 129 81 7 0 9 3 6 7 -4 4 5 13 20 20 30
14 65 35 73 44 3 3 22 15 43 28 20 12 37 28 37 33 0 6 3 8 6 5 4 -4 19 4 34
16 15 12 37 29 50 37 13 8 35 25 50 38 15 12 33 22 38 22 6 0 15 6 19 13 4 7
22 23 38 35 61 46 88 67 106 85 11 9 21 17 24 17 3 0 18 11 33 24 64 57 87 76
95 76 5 0 5 4 2 10 -3 5 -1 10 4 10 11 0 37 21 105 84 17 16 41 35 53 43 13 9
20 19 17 24 -3 5 -1 9 4 9 5 0 42 32 83 70 40 39 77 70 81 70 4 0 7 6 6 13 -2
6 3 11 10 9 6 -1 12 5 12 13 0 8 7 15 15 15 8 0 15 5 15 10 0 6 28 39 63 75
73 75 125 132 187 205 25 29 53 61 63 72 9 10 17 23 17 29 0 5 5 7 10 4 6 -3
10 1 10 9 0 9 3 16 8 16 4 0 18 16 31 35 13 19 31 43 40 54 35 41 47 57 76 96
16 22 32 42 35 45 3 3 17 23 32 45 15 22 48 69 73 105 71 100 135 199 135 210
0 6 4 10 8 10 5 0 17 16 28 35 10 19 22 35 26 35 5 0 7 3 6 8 -3 12 24 62 34
62 4 0 8 5 8 11 0 10 78 148 90 159 3 3 6 11 8 18 1 7 14 31 27 52 14 22 22
40 18 40 -5 0 -3 4 2 8 6 4 26 39 45 77 19 39 41 78 49 88 8 9 11 17 7 17 -3
0 1 11 10 25 9 14 13 25 10 25 -4 0 1 11 10 25 9 14 13 25 10 25 -4 0 2 10 13
22 11 11 18 25 14 31 -3 5 0 13 6 17 7 4 14 13 15 21 3 15 11 35 50 122 14 31
26 59 26 62 0 3 8 24 17 47 10 24 17 46 15 51 -1 4 2 7 8 7 6 0 9 3 8 8 -2 8
28 96 43 124 5 10 9 26 9 36 0 10 3 22 7 25 11 11 51 146 45 152 -3 3 -1 5 5
5 6 0 14 17 19 38 4 20 8 39 9 42 1 3 5 19 9 35 4 17 12 39 17 50 6 11 11 30
12 43 0 12 4 22 8 22 4 0 6 8 4 18 -1 9 1 22 6 27 4 6 10 24 13 40 2 17 5 31
6 33 2 1 3 10 4 20 1 9 5 23 9 30 5 6 6 12 3 12 -2 0 0 15 5 33 5 17 12 46 15
62 8 43 12 60 14 63 2 1 4 11 5 22 1 11 4 21 5 23 1 1 3 13 5 27 2 14 6 39 10
55 4 17 8 41 10 55 2 14 4 25 5 25 1 0 3 15 6 34 2 19 7 46 10 60 5 25 12 76
17 131 1 14 7 28 12 32 6 5 5 8 -2 8 -9 0 -10 7 -3 25 5 14 9 29 9 33 -1 4 0
9 1 12 1 3 3 25 5 50 2 25 6 74 10 110 4 36 8 90 9 120 1 30 6 61 10 69 7 10
5 12 -4 6 -9 -6 -11 -4 -5 5 10 17 14 118 14 355 -1 253 -3 355 -9 355 -3 0
-6 30 -7 68 -2 75 -11 207 -13 207 -1 0 -3 16 -5 35 -2 19 -4 35 -5 35 -1 0
-3 18 -5 40 -1 22 -3 40 -4 40 -1 0 -4 16 -6 35 -3 19 -7 58 -11 85 -3 28 -6
56 -7 63 0 6 -5 12 -10 12 -5 0 -4 7 3 15 7 9 8 15 2 15 -6 0 -9 8 -7 18 1 9
-2 23 -8 30 -5 6 -7 12 -5 12 3 0 1 21 -4 48 -12 63 -20 113 -21 135 -1 9 -4
17 -8 17 -4 0 -6 8 -4 18 1 9 0 22 -4 27 -6 10 -7 14 -15 55 -3 14 -8 39 -12
55 -3 17 -8 45 -11 63 -3 17 -8 32 -12 32 -4 0 -7 8 -8 18 0 9 -3 26 -6 37 -3
11 -8 34 -12 50 -4 17 -10 35 -14 40 -3 6 -6 17 -8 25 -2 15 -20 81 -31 110
-6 17 -11 35 -15 53 -1 6 -5 17 -8 22 -8 14 -23 68 -21 78 1 4 -2 7 -6 7 -5 0
-9 6 -10 13 -2 22 -7 42 -15 54 -5 7 -10 21 -12 30 -7 37 -10 48 -15 53 -3 3
-13 26 -22 53 -10 26 -26 68 -35 95 -10 26 -22 50 -28 54 -5 4 -6 8 -1 8 4 0
1 11 -8 25 -9 14 -14 25 -11 25 3 0 -6 22 -20 50 -14 27 -25 56 -25 65 0 8 -5
15 -11 15 -5 0 -7 5 -4 10 3 6 1 10 -4 10 -6 0 -11 7 -11 16 0 9 -9 31 -19 48
-11 17 -20 36 -21 41 -2 16 -54 120 -62 123 -5 2 -8 12 -8 22 0 9 -7 23 -15
30 -8 7 -12 16 -9 21 3 5 0 9 -5 9 -6 0 -11 9 -11 20 0 11 -4 20 -10 20 -5 0
-10 6 -10 14 0 8 -7 22 -16 30 -8 9 -13 16 -10 16 4 0 -57 111 -94 170 -22 36
-86 144 -95 161 -5 10 -13 19 -17 19 -5 0 -8 7 -8 15 0 7 -6 18 -14 22 -8 4
-14 10 -13 13 1 3 -21 38 -48 78 -28 41 -54 81 -60 90 -10 16 -20 29 -42 56
-7 8 -13 20 -13 26 0 5 -4 10 -9 10 -5 0 -12 8 -15 18 -3 9 -16 29 -28 43 -13
15 -34 41 -48 59 -82 108 -153 195 -161 198 -5 2 -9 7 -9 12 0 5 -19 29 -42
54 -24 24 -59 64 -78 87 -124 150 -449 467 -630 615 -19 16 -42 36 -50 44 -8
9 -31 27 -50 40 -34 24 -61 45 -84 65 -6 6 -31 26 -56 45 -25 19 -46 38 -48
42 -2 5 -10 8 -17 8 -8 0 -18 6 -22 13 -4 8 -15 17 -23 21 -39 18 -59 33 -53
39 3 4 0 7 -8 7 -9 0 -24 8 -35 18 -30 26 -114 82 -123 82 -5 0 -11 3 -13 8
-3 8 -149 102 -218 140 -25 13 -52 30 -60 36 -8 7 -28 18 -45 26 -16 8 -32 18
-35 21 -6 7 5 1 -247 129 -102 52 -189 95 -192 95 -19 2 -51 18 -51 26 0 5 -3
8 -7 7 -8 -1 -33 8 -106 40 -23 11 -64 27 -92 37 -27 10 -54 22 -60 26 -5 4
-19 9 -30 11 -11 1 -22 6 -25 9 -6 8 -311 112 -327 112 -7 0 -13 4 -13 9 0 4
-10 8 -23 8 -13 0 -27 3 -31 7 -3 4 -17 9 -29 11 -29 5 -38 7 -60 17 -10 4
-26 9 -35 10 -10 1 -24 4 -32 8 -15 6 -115 33 -160 43 -14 3 -29 7 -35 8 -5 1
-37 9 -70 16 -68 16 -72 17 -82 20 -5 1 -12 2 -17 1 -5 -1 -16 1 -25 5 -9 4
-27 8 -41 10 -30 4 -65 12 -65 14 0 1 -11 3 -25 4 -25 3 -71 11 -120 21 -26 6
-69 12 -135 20 -22 3 -53 7 -70 9 -91 13 -135 18 -180 21 -27 2 -50 4 -50 5 0
2 -58 6 -167 12 -38 1 -68 7 -68 11 0 4 -8 3 -19 -2 -10 -6 -22 -7 -25 -3 -9
8 -543 10 -578 2z m334 -535 c5 -6 8 -6 8 1 0 7 13 10 33 8 17 -2 88 -6 157
-9 191 -7 341 -19 475 -39 6 -1 15 -5 22 -9 6 -4 15 -3 18 3 4 7 12 7 18 2 7
-4 30 -10 51 -11 22 -2 49 -5 60 -8 30 -6 77 -14 104 -15 12 -1 22 -6 22 -10
0 -4 14 -6 30 -4 17 2 30 0 30 -3 0 -4 12 -8 28 -8 15 -1 77 -14 137 -28 125
-30 140 -34 175 -41 13 -3 30 -10 37 -16 7 -6 13 -8 13 -5 0 3 24 -1 53 -10
28 -8 59 -17 67 -18 8 -2 15 -4 15 -5 0 -1 7 -3 16 -5 18 -3 265 -86 330 -111
55 -20 75 -28 121 -48 20 -9 39 -16 43 -16 6 0 74 -29 129 -56 16 -8 35 -14
43 -14 7 0 13 -4 13 -10 0 -5 6 -10 14 -10 7 0 34 -11 60 -25 25 -13 46 -22
46 -18 0 3 6 1 13 -5 6 -5 64 -36 127 -67 63 -32 118 -62 121 -67 3 -5 10 -10
15 -10 25 -3 43 -11 38 -19 -3 -5 4 -9 15 -9 12 0 21 -4 21 -9 0 -5 10 -13 23
-17 12 -3 29 -12 37 -19 8 -8 22 -15 30 -17 8 -2 17 -5 20 -8 14 -14 70 -50
78 -50 5 0 17 -9 27 -20 10 -11 21 -17 25 -15 4 2 15 -4 25 -15 10 -11 24 -20
31 -20 7 0 14 -3 16 -8 2 -4 31 -25 65 -47 35 -22 63 -43 63 -47 0 -5 6 -8 14
-8 8 0 16 -3 18 -8 2 -4 33 -29 70 -55 36 -26 73 -54 82 -62 8 -8 17 -15 20
-15 7 0 21 -12 81 -67 22 -20 41 -35 43 -34 2 2 26 -17 52 -41 27 -23 73 -63
101 -88 29 -25 72 -64 97 -87 25 -24 46 -43 47 -43 8 0 185 -182 185 -190 0
-6 5 -8 10 -5 6 3 10 3 10 -2 0 -4 28 -38 63 -74 91 -97 117 -128 117 -140 0
-5 5 -7 10 -4 6 3 10 2 10 -2 0 -8 27 -41 80 -100 11 -12 20 -25 20 -28 0 -3
10 -17 23 -30 28 -31 37 -42 67 -85 14 -19 32 -42 40 -50 9 -8 29 -36 45 -62
17 -27 33 -48 38 -48 4 0 7 -7 7 -15 0 -8 5 -15 10 -15 6 0 10 -6 10 -14 0 -8
3 -16 8 -18 11 -5 62 -75 62 -86 0 -6 4 -12 8 -14 4 -1 42 -59 85 -128 42 -69
81 -131 87 -137 6 -7 8 -13 5 -13 -4 0 3 -13 14 -29 12 -16 21 -34 21 -40 0
-6 5 -11 11 -11 5 0 7 -4 4 -10 -3 -5 -1 -10 4 -10 6 0 11 -4 11 -8 0 -4 22
-49 49 -100 27 -51 47 -92 44 -92 -3 0 0 -7 7 -15 13 -16 63 -114 64 -127 1
-4 6 -12 13 -19 6 -6 9 -18 6 -25 -3 -8 0 -14 6 -14 6 0 11 -5 11 -11 0 -5 11
-34 24 -62 13 -29 35 -81 49 -117 14 -36 31 -78 38 -95 7 -16 13 -32 14 -35 8
-25 18 -48 26 -62 5 -10 9 -27 9 -38 0 -11 5 -20 12 -20 6 0 9 -3 5 -6 -3 -3
1 -25 10 -47 8 -23 16 -49 18 -57 2 -8 12 -37 21 -65 25 -74 27 -78 31 -100 2
-11 6 -27 10 -35 7 -18 10 -29 15 -55 2 -11 7 -25 11 -32 4 -6 8 -23 9 -37 1
-14 5 -26 9 -26 3 0 6 -6 6 -12 0 -7 4 -26 7 -43 4 -16 10 -46 13 -65 3 -19 9
-37 14 -38 5 -2 7 -7 5 -10 -2 -4 4 -48 15 -97 10 -50 21 -106 24 -125 3 -19
8 -46 11 -60 3 -14 7 -36 9 -50 2 -14 4 -25 5 -25 2 0 9 -63 11 -102 1 -18 7
-33 12 -33 5 0 5 -6 -2 -13 -6 -8 -7 -17 -3 -21 4 -4 8 -21 8 -37 1 -16 3 -30
4 -31 3 -4 7 -46 14 -143 9 -131 16 -198 21 -203 2 -2 0 -15 -5 -28 -5 -13 -6
-24 -2 -24 9 0 7 -450 -3 -585 -13 -182 -17 -227 -30 -325 -4 -30 -9 -68 -10
-85 -1 -16 -3 -30 -4 -30 -1 0 -4 -18 -6 -40 -4 -37 -11 -72 -15 -85 -1 -3 -2
-8 -1 -12 1 -7 -19 -120 -34 -188 -3 -14 -7 -35 -10 -48 -2 -13 -7 -33 -11
-45 -4 -12 -8 -33 -10 -47 -1 -14 -3 -25 -4 -25 -2 0 -6 -16 -15 -60 -10 -46
-13 -60 -14 -62 -1 -2 -2 -6 -2 -10 -1 -5 -6 -19 -11 -33 -10 -25 -14 -42 -24
-89 -3 -13 -9 -32 -15 -43 -5 -10 -7 -23 -4 -28 3 -6 1 -10 -6 -10 -7 0 -10
-3 -6 -6 3 -3 -1 -25 -10 -47 -8 -23 -16 -46 -17 -52 -1 -5 -5 -16 -9 -22 -5
-7 -5 -17 -2 -23 3 -5 2 -10 -3 -10 -9 0 -26 -55 -23 -72 0 -5 -4 -8 -11 -8
-6 0 -9 -3 -5 -6 3 -4 0 -22 -8 -40 -8 -19 -11 -34 -7 -34 4 0 1 -4 -6 -9 -7
-4 -14 -18 -15 -29 -1 -12 -5 -22 -9 -22 -4 0 -8 -6 -8 -14 0 -8 -9 -36 -21
-63 -11 -26 -23 -57 -25 -67 -2 -11 -9 -23 -16 -28 -7 -4 -9 -8 -4 -8 5 0 4
-6 -2 -12 -6 -7 -11 -16 -12 -20 -9 -37 -14 -48 -22 -48 -5 0 -6 -4 -3 -10 3
-6 -1 -7 -10 -4 -20 8 -95 84 -95 96 0 5 -4 7 -8 4 -5 -3 -15 6 -22 19 -7 14
-21 27 -32 31 -10 3 -18 12 -18 20 0 8 -7 14 -16 14 -8 0 -13 4 -9 9 3 5 -4
12 -15 16 -11 3 -20 10 -20 14 0 12 -310 321 -322 321 -6 0 -9 2 -6 5 6 6 -23
36 -110 118 -28 26 -50 47 -48 47 4 0 -537 542 -625 626 -90 86 -123 130 -155
207 -9 20 -20 37 -25 37 -5 0 -6 7 -3 15 4 8 1 22 -6 30 -7 8 -9 15 -5 15 4 0
3 6 -3 13 -5 6 -13 29 -16 49 -3 21 -10 55 -14 75 -5 21 -8 53 -7 71 1 18 -2
35 -7 38 -5 3 -6 9 -3 14 5 9 17 86 17 120 1 8 4 20 8 25 4 6 11 25 15 43 3
17 11 32 16 32 5 0 9 6 9 13 0 7 9 23 20 35 11 12 20 24 20 26 0 13 71 77 121
108 205 130 484 182 854 159 81 -5 84 -4 80 18 -6 31 -26 56 -54 69 -15 7 -36
20 -47 30 -11 9 -51 33 -89 52 -39 19 -72 37 -75 40 -3 3 -12 6 -20 8 -12 2
-106 29 -170 50 -8 2 -25 6 -36 8 -12 1 -39 6 -60 10 -52 10 -336 11 -399 1
-90 -14 -101 -16 -201 -42 -106 -27 -135 -37 -201 -66 -24 -11 -45 -19 -48
-19 -3 0 -63 -28 -133 -63 -126 -62 -302 -172 -302 -189 0 -4 -6 -8 -12 -8 -7
0 -54 -43 -105 -95 -50 -52 -95 -95 -98 -95 -15 0 -125 -120 -125 -135 0 -16
41 -77 71 -105 36 -33 68 -129 63 -188 -3 -41 -35 -132 -46 -132 -4 0 -8 -6
-8 -12 -1 -7 -21 -33 -45 -58 -25 -25 -45 -48 -45 -52 0 -13 -85 -65 -102 -62
-10 1 -18 -2 -18 -7 0 -10 -43 -3 -76 13 -12 6 -35 27 -50 48 -51 68 -143 97
-204 65 -48 -25 -119 -94 -141 -137 -26 -51 -25 -116 4 -154 45 -60 68 -84
332 -349 149 -148 282 -285 298 -303 15 -19 27 -31 27 -27 0 3 10 -4 23 -15
55 -53 118 -59 184 -19 54 32 133 119 141 154 6 30 6 35 4 87 -2 18 -23 48
-67 94 -102 106 -100 146 16 262 64 66 135 111 183 118 11 2 31 5 44 8 20 4
57 -1 130 -17 7 -2 18 -9 24 -15 7 -7 18 -12 25 -12 6 0 183 -170 392 -379
209 -208 383 -376 386 -373 3 3 5 1 5 -5 0 -6 186 -197 414 -426 228 -228 412
-418 409 -421 -4 -3 1 -6 10 -6 9 0 18 -4 21 -9 7 -10 -13 -71 -23 -71 -3 0
-15 -20 -26 -45 -11 -25 -23 -45 -27 -45 -5 0 -8 -5 -8 -10 0 -6 -29 -55 -65
-110 -35 -55 -62 -100 -58 -100 3 0 -4 -9 -16 -19 -12 -11 -22 -23 -22 -28 1
-4 -6 -16 -14 -26 -8 -9 -15 -19 -15 -22 0 -3 -7 -13 -15 -22 -8 -10 -28 -37
-45 -60 l-30 -43 -964 0 c-550 0 -967 4 -970 9 -3 5 0 14 8 20 10 8 12 21 6
46 -4 19 -4 33 0 30 4 -2 7 9 6 25 -1 17 -4 30 -8 30 -4 0 -3 12 3 27 7 19 7
29 0 31 -6 2 -8 9 -4 15 10 17 11 47 1 41 -4 -3 -8 6 -8 19 0 26 -32 61 -45
50 -4 -5 -5 -3 -1 4 7 13 -19 31 -51 36 -10 1 -24 6 -30 10 -8 5 -13 3 -13 -4
0 -8 -4 -8 -15 1 -12 10 -15 10 -15 -1 0 -9 -3 -10 -8 -4 -4 6 -16 10 -27 10
-11 0 -32 3 -47 7 -17 4 -28 3 -28 -4 0 -6 -5 -7 -12 -1 -7 4 -39 8 -70 8 -32
0 -58 2 -58 5 0 3 -37 7 -82 8 -153 4 -173 6 -180 16 -4 6 -12 5 -22 -3 -9 -8
-16 -9 -16 -4 0 5 -8 9 -17 9 -59 3 -113 10 -113 14 0 5 -10 7 -65 11 -14 1
-25 5 -25 10 0 5 -3 8 -7 7 -13 -4 -123 25 -123 31 0 4 -10 7 -22 8 -11 1 -24
6 -27 10 -3 4 -15 10 -26 11 -27 5 -55 21 -37 22 7 0 11 4 7 9 -3 5 -1 12 5
16 6 4 8 11 5 16 -4 5 -1 9 5 9 6 0 9 4 6 8 -2 4 6 29 19 55 14 26 22 47 18
47 -3 0 -1 6 5 13 6 6 11 15 11 19 1 4 10 27 20 50 10 24 21 56 25 71 3 15 11
25 16 22 6 -4 7 1 3 11 -4 11 -3 15 4 11 7 -5 9 0 6 13 -3 12 0 20 8 20 7 0 9
3 6 7 -4 3 -2 12 4 20 6 7 8 13 4 13 -5 0 0 9 10 20 9 10 15 26 12 34 -3 8 1
17 9 20 8 3 14 9 13 13 -3 21 2 44 9 39 4 -2 8 3 9 13 1 15 9 37 38 101 8 16
17 50 15 55 -1 4 9 15 21 25 16 15 26 17 40 9 14 -7 19 -6 19 2 0 7 5 8 13 3
6 -5 39 -9 72 -9 33 0 63 -4 67 -10 5 -6 8 -5 8 3 0 9 5 10 18 3 13 -7 23 -6
30 1 7 7 12 8 12 2 0 -5 16 -10 35 -10 32 -1 37 2 34 22 0 4 3 10 8 13 4 3 14
17 21 30 11 19 11 22 0 15 -10 -6 -11 -5 -1 7 15 18 18 16 -242 119 -44 17
-89 35 -100 40 -11 5 -37 14 -57 21 -21 7 -38 16 -38 19 0 3 -12 7 -27 8 -16
1 -29 7 -31 12 -2 6 -9 10 -15 10 -15 0 -269 100 -284 112 -8 6 -14 2 -19 -14
-4 -13 -7 -26 -6 -30 1 -5 -3 -8 -9 -8 -6 0 -9 -7 -5 -15 3 -8 1 -15 -4 -15
-6 0 -10 -7 -10 -15 0 -8 7 -15 16 -15 8 0 13 -3 11 -7 -3 -5 1 -14 9 -21 8
-7 14 -10 14 -6 0 4 8 -3 19 -14 10 -12 21 -19 25 -15 3 3 6 -2 6 -11 0 -10 6
-16 13 -13 6 2 22 -10 35 -27 13 -17 26 -31 30 -31 4 0 6 -4 4 -8 -1 -5 2 -6
7 -3 5 4 18 -5 29 -19 11 -14 25 -25 31 -25 10 0 10 -37 1 -60 -1 -3 -2 -8 -1
-12 0 -5 -3 -8 -9 -8 -5 0 -10 -9 -10 -21 0 -13 -4 -18 -12 -13 -7 4 -8 3 -4
-4 4 -6 2 -19 -3 -29 -14 -26 -24 -57 -23 -65 1 -5 -2 -8 -8 -8 -5 0 -10 -7
-10 -16 0 -8 -5 -25 -12 -37 -7 -12 -13 -31 -15 -42 -2 -11 -8 -21 -13 -23 -6
-2 -10 -12 -10 -21 0 -10 -3 -21 -7 -25 -5 -4 -8 -11 -8 -14 -1 -4 -6 -17 -13
-30 -7 -12 -10 -27 -7 -32 3 -6 1 -10 -4 -10 -6 0 -11 -9 -11 -20 0 -11 -5
-20 -11 -20 -5 0 -8 -4 -4 -9 3 -5 1 -12 -5 -16 -5 -3 -10 -15 -10 -26 0 -10
-5 -19 -12 -19 -6 0 -8 -3 -5 -6 3 -4 1 -16 -5 -28 -7 -11 -13 -24 -14 -28 -1
-5 -3 -10 -4 -13 -3 -6 -5 -12 -15 -42 -4 -13 -11 -23 -14 -23 -4 0 -8 -6 -9
-12 -4 -52 -26 -68 -59 -44 -7 4 -13 5 -13 2 0 -4 -10 0 -21 8 -12 8 -28 12
-37 9 -9 -4 -13 -2 -9 4 6 10 -42 26 -81 28 -7 0 -16 5 -20 10 -4 6 -14 11
-22 13 -8 2 -17 8 -18 13 -2 6 -11 5 -20 -3 -10 -7 -14 -8 -10 -4 4 5 -25 20
-65 34 -39 14 -74 28 -77 31 -3 3 -18 8 -35 10 -16 1 -32 6 -35 10 -3 5 -17
11 -32 15 -16 3 -28 10 -28 14 0 5 -13 7 -30 6 -16 -1 -27 2 -24 7 3 5 -5 9
-17 9 -12 0 -31 8 -42 18 -11 9 -17 11 -12 3 7 -12 -43 15 -55 30 -3 3 -16 12
-28 18 -13 7 -21 15 -18 18 6 6 -17 32 -24 28 -3 -2 -7 6 -7 18 -1 12 -7 23
-13 25 -5 2 -8 8 -4 13 3 5 -1 9 -8 9 -9 0 -9 3 2 10 8 5 10 10 4 10 -6 0 -11
6 -12 13 0 6 -3 23 -7 37 -4 14 -8 32 -10 40 -1 8 -6 23 -10 33 -4 10 -8 31
-9 47 0 17 -3 30 -6 30 -3 0 -6 10 -7 23 -1 12 -4 36 -8 52 -8 34 -12 60 -14
93 -1 15 -5 21 -13 16 -7 -5 -8 -3 -2 7 11 18 14 39 5 39 -7 0 -8 5 -11 83 -2
26 -7 47 -12 47 -7 0 -6 5 1 13 6 8 8 17 4 21 -9 8 -14 61 -16 154 -1 39 -4
72 -7 72 -5 0 -5 48 0 60 1 3 1 10 0 15 -8 33 -6 75 4 75 7 0 8 3 0 8 -5 4
-10 26 -10 50 1 23 -3 42 -9 42 -7 0 -7 3 0 8 6 4 10 14 10 22 0 8 -4 18 -10
22 -6 5 -6 8 1 8 14 0 13 32 -1 42 -7 5 -7 8 0 8 11 0 12 450 1 469 -4 6 -4
11 1 11 10 0 9 112 -1 128 -4 7 -3 12 2 12 6 0 8 20 5 48 -3 26 -5 52 -4 57 5
63 4 128 -2 132 -4 2 -2 13 3 24 8 14 7 19 -1 19 -7 0 -5 10 6 26 9 15 12 23
5 19 -9 -5 -11 8 -8 54 2 36 -1 61 -7 61 -7 0 -7 3 0 8 6 4 10 23 9 42 0 19 3
40 8 47 5 7 5 14 -2 18 -8 5 -8 11 1 21 7 9 8 14 1 14 -10 0 -7 44 4 62 3 4
-1 8 -8 8 -8 0 -9 3 -3 8 6 4 11 36 13 71 3 66 7 115 16 186 3 22 8 58 11 80
8 65 14 103 21 133 3 15 5 37 5 50 0 12 5 22 11 22 9 0 9 3 1 11 -9 9 -8 15 3
26 11 11 12 19 4 28 -8 9 -8 15 0 20 5 3 10 20 10 36 0 17 4 28 8 25 4 -2 7 7
7 22 -1 15 3 36 9 47 6 11 9 24 8 29 -2 4 3 14 9 22 6 8 8 14 4 14 -4 0 -1 8
6 17 12 15 12 16 -1 8 -8 -4 -5 3 8 17 12 13 22 29 22 35 0 6 18 26 40 43 22
17 40 29 40 25 0 -3 10 1 22 9 12 9 31 16 41 16 10 0 16 4 13 8 -2 4 4 9 15
10 42 4 49 6 49 12 0 7 48 22 75 24 6 1 12 3 15 6 6 6 68 30 92 35 9 2 25 8
36 14 11 6 22 7 26 4 3 -3 6 -2 6 4 0 6 12 13 28 16 15 3 41 11 57 18 17 7 32
13 35 14 3 1 13 5 22 9 9 4 22 9 30 10 40 8 68 19 68 27 0 4 9 6 20 4 11 -2
20 0 20 6 0 5 9 9 20 9 11 0 20 3 20 8 0 4 10 12 23 17 12 6 21 16 20 23 -2 7
1 12 6 12 5 0 12 7 15 16 4 10 2 13 -6 8 -7 -4 -8 -3 -4 4 12 20 15 52 5 52
-6 0 -6 6 0 18 5 10 6 24 1 32 -5 8 -5 21 0 30 5 9 5 22 0 30 -4 7 -6 28 -4
47 3 26 1 33 -8 27 -9 -6 -9 -3 1 9 11 14 11 17 0 18 -10 0 -11 2 -2 6 9 3 10
10 3 24 -8 14 -7 19 2 20 7 0 9 2 3 5 -12 5 -12 65 0 84 5 8 4 11 -3 6 -6 -3
-13 -2 -17 4 -3 5 -2 10 4 10 10 0 9 19 -2 38 -5 7 -3 12 4 12 8 0 8 4 -1 15
-9 11 -9 15 -1 15 7 0 9 5 4 13 -13 20 -14 49 -2 41 8 -4 8 -1 2 12 -6 11 -10
46 -11 78 -1 33 -4 73 -8 89 -5 23 -3 28 7 21 12 -6 12 -5 0 9 -7 9 -10 17 -7
17 4 0 2 10 -5 21 -9 17 -8 20 2 14 8 -5 10 -4 5 3 -4 7 -9 20 -11 29 -7 40
-10 48 -18 54 -5 3 -9 12 -11 20 -5 32 -18 59 -27 59 -6 0 -7 5 -4 10 3 6 -1
13 -9 16 -9 3 -16 10 -16 15 0 14 -87 99 -94 92 -3 -4 -6 -1 -6 6 0 7 -13 17
-30 22 -16 6 -30 15 -30 21 0 6 -7 8 -15 4 -8 -3 -15 -2 -15 3 0 10 -67 32
-103 34 -15 1 -27 5 -27 10 0 4 -5 7 -11 7 -5 0 -7 -6 -3 -12 5 -8 0 -7 -11 2
-10 8 -26 14 -37 12 -10 -2 -18 3 -18 10 0 9 -3 9 -10 -2 -5 -8 -10 -10 -10
-4 0 6 -16 11 -35 12 -53 3 -65 5 -65 11 0 3 -21 7 -48 8 -73 3 -92 6 -92 18
0 5 -5 3 -10 -5 -5 -8 -10 -11 -10 -6 0 5 -8 2 -17 -5 -13 -11 -15 -11 -9 -1
6 10 3 13 -10 12 -11 -1 -21 -1 -24 0 -3 1 -50 3 -105 5 -55 1 -135 4 -178 5
-42 2 -79 1 -82 -2 -3 -3 -25 -2 -50 2 -24 4 -50 3 -57 -1 -6 -4 -16 -5 -22
-2 -9 6 -72 6 -297 -1 -47 -1 -91 -6 -97 -10 -7 -4 -12 -2 -12 4 0 6 -5 8 -10
5 -11 -7 -116 -18 -162 -18 -16 1 -28 -2 -28 -6 0 -3 -12 -6 -27 -7 -16 0 -46
-4 -68 -8 -22 -4 -50 -8 -62 -9 -13 0 -23 -4 -23 -7 0 -3 -10 -7 -22 -7 -27
-2 -49 -7 -63 -14 -5 -3 -17 -5 -25 -4 -8 0 -21 -6 -29 -13 -12 -11 -15 -11
-22 0 -7 10 -9 9 -9 -4 0 -10 -5 -15 -13 -12 -8 3 -20 -2 -27 -11 -7 -8 -18
-15 -26 -15 -7 0 -31 -18 -53 -39 -22 -21 -42 -37 -44 -34 -3 2 -8 -5 -12 -16
-3 -12 -10 -21 -15 -21 -5 0 -12 -9 -15 -20 -4 -11 -11 -17 -17 -14 -7 5 -9 0
-6 -14 4 -13 0 -23 -9 -26 -8 -3 -11 -10 -8 -16 3 -5 1 -10 -6 -10 -7 0 -9 -3
-6 -7 4 -3 2 -12 -4 -19 -6 -7 -12 -26 -13 -43 -1 -17 -5 -33 -8 -37 -4 -3 -4
-13 -1 -21 3 -8 0 -19 -8 -24 -11 -7 -11 -9 -1 -9 8 0 10 -5 6 -12 -11 -18
-10 -68 1 -68 6 0 6 -3 -1 -8 -6 -4 -10 -23 -9 -42 1 -19 -2 -45 -6 -57 -5
-14 -5 -23 2 -23 6 0 6 -7 -1 -20 -8 -15 -8 -20 1 -20 8 0 8 -4 2 -12 -5 -7
-9 -52 -9 -100 1 -49 -1 -88 -4 -88 -3 0 -5 -15 -5 -32 1 -18 -2 -38 -7 -45
-5 -7 -5 -14 2 -18 5 -3 10 -11 10 -16 0 -6 -5 -7 -11 -3 -8 5 -8 1 0 -13 7
-14 7 -23 -1 -31 -9 -9 -9 -12 2 -12 11 0 11 -3 2 -12 -8 -8 -8 -17 -1 -31 6
-11 7 -17 2 -14 -8 5 -10 -96 -3 -113 1 -3 2 -8 1 -12 0 -5 4 -8 10 -8 5 0 8
-3 6 -7 -3 -5 1 -14 9 -21 10 -9 14 -9 14 -1 0 6 9 1 21 -12 11 -13 17 -17 13
-9 -7 12 -5 13 8 3 8 -7 18 -10 21 -6 4 3 7 1 7 -6 0 -7 5 -9 10 -6 6 3 10 1
10 -5 0 -6 4 -9 8 -6 5 3 21 -2 36 -10 16 -7 36 -14 45 -14 9 0 21 -4 27 -9 5
-4 65 -27 134 -51 69 -24 131 -47 138 -53 6 -5 12 -6 12 -2 0 4 7 2 15 -5 8
-7 15 -10 15 -6 0 4 14 0 30 -9 17 -9 30 -12 30 -8 0 5 4 2 8 -4 5 -7 20 -14
35 -15 15 -1 27 -6 27 -10 0 -4 9 -8 20 -8 11 0 20 -5 20 -11 0 -5 4 -8 9 -4
5 3 17 -3 27 -12 10 -10 20 -17 23 -17 3 1 20 -10 36 -23 17 -14 23 -21 15
-17 -8 4 -2 -7 13 -25 15 -19 26 -40 23 -48 -3 -7 1 -16 8 -19 8 -3 12 -14 9
-25 -3 -10 -1 -19 5 -19 5 0 10 -11 11 -25 3 -47 4 -55 11 -55 3 0 7 -10 7
-22 2 -31 7 -50 17 -67 7 -11 6 -12 -5 -6 -11 7 -12 6 -3 -6 12 -14 13 -20 17
-76 1 -18 5 -33 8 -33 3 0 5 -16 4 -36 0 -19 3 -38 8 -41 5 -3 6 -11 3 -19 -3
-7 -1 -16 3 -19 5 -2 9 -22 10 -42 4 -96 6 -123 11 -123 3 0 6 -12 6 -27 6
-136 8 -164 16 -169 4 -3 5 -11 1 -17 -12 -19 -12 -37 -1 -37 6 0 5 -6 -2 -15
-7 -9 -8 -15 -2 -15 11 0 11 -18 -1 -37 -4 -6 -3 -14 2 -17 11 -7 9 -25 -3
-45 -6 -9 -5 -12 2 -7 13 8 11 -72 -2 -93 -6 -9 -5 -12 1 -8 6 4 10 -16 11
-51 0 -34 -4 -60 -11 -64 -9 -6 -9 -8 1 -8 9 0 11 -7 7 -21 -5 -15 -4 -19 4
-15 8 5 8 0 2 -16 -4 -13 -6 -29 -3 -37 3 -10 0 -11 -9 -5 -11 6 -12 5 -3 -7
16 -19 16 -171 0 -162 -8 5 -8 3 0 -8 15 -19 16 -121 0 -112 -8 5 -8 3 0 -8
13 -17 16 -76 4 -84 -4 -3 -6 -14 -3 -25 3 -11 10 -17 17 -13 7 4 6 1 -1 -9
-7 -8 -10 -18 -6 -22 4 -4 1 -11 -7 -16 -8 -6 -10 -10 -5 -10 15 0 16 -110 1
-110 -7 0 -8 -3 -1 -8 14 -10 16 -104 2 -95 -6 4 -7 1 -1 -8 13 -21 15 -101 2
-93 -7 5 -8 2 -2 -7 14 -22 14 -140 0 -132 -7 4 -7 2 1 -8 12 -15 12 -43 0
-55 -3 -4 -3 -12 0 -18 11 -17 12 -35 2 -41 -4 -3 -4 -16 0 -28 5 -14 5 -30 0
-40 -7 -12 -6 -17 3 -17 8 0 9 -3 3 -8 -9 -6 -15 -53 -19 -169 -1 -23 -4 -45
-8 -48 -3 -3 -4 -19 -2 -35 2 -17 0 -30 -4 -30 -5 0 -6 -14 -4 -31 3 -20 0
-34 -9 -40 -12 -7 -12 -9 0 -9 9 0 10 -4 4 -12 -5 -7 -9 -25 -8 -40 0 -16 -2
-28 -6 -28 -3 0 -5 -16 -4 -35 1 -19 -2 -35 -6 -35 -4 0 -8 -8 -8 -17 1 -18
-8 -78 -11 -78 -2 0 -10 -38 -12 -62 -1 -13 -5 -23 -9 -23 -3 0 -5 -11 -4 -25
2 -14 -1 -25 -6 -25 -6 0 -7 -5 -4 -10 4 -6 1 -18 -7 -27 -11 -14 -11 -16 2
-8 12 7 13 6 3 -7 -7 -8 -10 -18 -6 -21 3 -4 0 -7 -7 -7 -7 0 -11 -3 -7 -6 3
-4 -1 -21 -10 -38 -10 -17 -17 -33 -18 -36 -1 -13 -83 -88 -90 -82 -3 4 -11
-1 -16 -10 -5 -10 -16 -15 -24 -12 -8 4 -15 1 -15 -6 0 -7 -7 -10 -15 -6 -8 3
-15 1 -15 -4 0 -6 -6 -10 -14 -10 -8 0 -27 -5 -43 -12 -15 -6 -37 -13 -48 -15
-10 -2 -22 -7 -25 -11 -5 -7 -27 -14 -47 -15 -7 0 -13 -4 -13 -9 0 -4 -3 -7
-7 -7 -19 4 -73 -15 -73 -24 0 -6 -3 -7 -7 -4 -3 4 -12 2 -20 -4 -7 -6 -13 -8
-13 -4 0 4 -12 0 -26 -10 -14 -9 -32 -14 -40 -11 -8 3 -14 2 -14 -3 0 -7 -45
-24 -57 -22 -2 0 -18 -6 -37 -14 -18 -8 -37 -11 -41 -7 -5 4 -6 2 -2 -3 3 -6
-6 -15 -19 -22 -13 -6 -24 -7 -24 -3 0 5 -18 0 -40 -11 -21 -10 -46 -19 -55
-19 -8 0 -15 -6 -15 -12 0 -9 -4 -8 -10 2 -5 8 -10 10 -10 3 0 -12 -55 -35
-64 -26 -3 4 -6 1 -6 -6 0 -7 -4 -10 -9 -6 -5 3 -17 -2 -25 -11 -9 -8 -16 -12
-16 -8 0 3 -8 0 -17 -7 -11 -9 -14 -10 -9 -2 5 9 2 11 -8 7 -9 -3 -16 -10 -16
-16 0 -5 -5 -6 -10 -3 -6 4 -16 2 -23 -3 -7 -5 -27 -13 -44 -17 -18 -3 -33
-11 -33 -16 0 -6 -4 -7 -10 -4 -5 3 -16 3 -22 -2 -7 -4 -22 -9 -33 -10 -11 -2
-27 -6 -35 -10 -8 -3 -22 -7 -30 -9 -14 -3 -32 -6 -110 -21 -14 -2 -33 -5 -42
-6 -10 -1 -18 -6 -18 -12 0 -5 -4 -4 -8 2 -5 9 -17 10 -38 5 -16 -4 -50 -8
-76 -7 -27 0 -48 -3 -48 -8 0 -4 -9 -3 -20 3 -12 6 -20 7 -20 1 0 -5 -8 -8
-17 -6 -10 1 -24 -2 -30 -8 -7 -5 -13 -5 -13 -1 0 5 -18 9 -40 9 -22 0 -40 -2
-40 -5 0 -5 -67 -9 -167 -12 -21 0 -30 -4 -26 -12 4 -7 1 -7 -7 1 -9 8 -19 9
-32 2 -12 -6 -18 -6 -18 0 0 7 -9 7 -27 0 -16 -6 -30 -11 -33 -11 -45 -6 -90
-48 -90 -83 0 -8 -4 -15 -8 -15 -8 0 -9 -231 -1 -260 4 -13 -100 -15 -878 -18
l-882 -2 -57 77 c-32 43 -63 87 -69 98 -23 44 -68 110 -76 113 -5 2 -9 13 -9
24 0 12 -3 18 -6 15 -4 -4 -18 15 -32 41 -14 26 -30 50 -36 54 -6 4 -7 8 -2 8
5 0 3 7 -4 15 -17 21 -49 76 -56 98 -4 9 -11 17 -16 17 -5 0 -7 4 -4 9 4 5 3
11 -2 13 -4 1 -30 48 -57 103 -28 55 -53 102 -57 103 -5 2 -8 12 -8 22 0 10
-5 20 -11 22 -5 2 -11 10 -13 18 -1 8 -10 29 -19 47 -9 18 -17 39 -17 48 0 8
-4 15 -10 15 -5 0 -10 5 -10 10 0 6 -9 30 -20 52 -11 23 -20 47 -20 54 0 7 -3
14 -8 16 -7 3 -61 137 -109 273 -13 39 -27 77 -31 85 -3 8 -7 20 -7 25 -1 6
-8 24 -14 40 -7 17 -14 37 -16 45 -2 8 -4 16 -4 18 -1 1 -1 4 -1 7 0 3 -7 19
-15 35 -9 17 -13 30 -11 30 3 0 -1 18 -9 40 -8 22 -12 40 -9 40 3 0 2 6 -3 13
-4 6 -9 17 -10 22 -1 6 -7 28 -13 50 -6 22 -16 57 -21 78 -5 20 -14 56 -20 80
-6 23 -12 53 -14 67 -2 14 -4 25 -5 25 -1 0 -3 7 -5 15 -9 37 -27 127 -30 145
-1 11 -3 20 -5 20 -1 0 -3 14 -5 30 -4 37 -14 91 -21 125 -3 14 -8 42 -10 63
-2 20 -7 56 -10 80 -3 23 -7 60 -8 83 -1 22 -5 45 -8 50 -2 5 -4 24 -3 42 0
17 -2 32 -5 32 -3 0 -6 26 -6 58 -3 103 -12 231 -17 240 -3 4 -2 14 3 22 5 9
5 19 -2 27 -7 9 -7 13 1 13 7 0 9 5 5 12 -11 17 -12 48 -3 48 4 0 4 12 0 28
-4 15 -6 38 -4 52 2 14 3 30 3 35 -1 27 -1 97 0 160 0 39 0 77 0 85 -1 8 1 29
4 45 3 17 8 68 11 115 7 117 20 242 39 373 4 20 8 54 11 75 3 20 8 48 10 62
13 67 18 96 19 113 0 9 3 17 6 17 3 0 7 10 8 23 1 12 3 31 5 42 2 11 7 39 12
63 4 23 12 45 16 48 5 3 7 10 3 15 -3 5 0 25 6 44 6 19 13 48 15 64 2 17 9 40
15 51 6 11 9 20 6 20 -3 0 4 25 14 55 10 30 17 55 15 55 -2 0 3 16 11 35 8 19
11 35 8 35 -4 0 -1 7 6 15 6 8 9 19 5 25 -3 5 -2 10 3 10 5 0 9 6 9 13 0 16
95 291 102 297 3 3 7 13 9 22 1 9 9 30 17 45 8 15 15 32 15 36 0 5 7 25 16 45
8 21 21 51 28 67 8 17 25 56 40 87 14 31 26 62 26 67 0 6 5 11 11 11 6 0 9 7
5 15 -3 8 -2 15 3 15 8 0 24 38 22 53 -1 4 4 7 10 7 5 0 8 4 5 9 -4 5 -3 11 2
13 4 1 28 44 52 93 25 50 48 91 53 93 4 2 7 9 7 16 0 6 11 28 25 47 13 20 21
39 18 43 -4 3 -2 6 3 6 5 0 18 17 29 38 30 58 99 167 107 170 4 2 8 8 8 13 0
11 72 123 83 127 4 2 7 10 7 18 0 8 5 14 10 14 6 0 10 5 10 11 0 6 6 16 13 24
20 21 49 63 48 70 -1 3 10 16 24 29 14 13 25 27 25 31 0 6 56 82 70 95 3 3 21
25 40 50 19 25 37 47 40 50 3 3 17 21 31 40 15 19 45 55 68 79 22 24 41 46 41
48 0 5 47 56 153 166 37 39 67 75 67 80 0 6 3 7 6 4 4 -4 20 10 35 30 16 20
29 34 29 31 0 -3 41 35 91 83 51 49 95 89 98 89 4 0 13 9 21 20 8 11 18 20 22
20 4 0 23 16 42 35 20 19 38 35 40 35 3 0 19 12 35 28 38 35 99 85 120 96 9 5
18 12 21 16 11 14 140 110 140 104 0 -4 8 2 18 12 9 10 24 24 33 29 45 28 97
65 118 84 13 11 30 21 38 21 7 0 13 5 13 10 0 6 6 10 13 10 8 0 23 8 35 18 11
10 37 27 56 37 20 11 36 23 36 28 0 4 5 5 10 2 6 -3 10 -2 10 3 0 5 12 14 28
21 15 7 38 20 52 29 14 9 29 17 33 17 4 0 12 7 17 15 5 8 10 12 10 7 0 -4 18
4 39 17 21 14 42 22 45 19 3 -4 6 -2 6 4 0 10 116 72 134 72 5 -1 12 3 15 8
11 16 228 118 244 115 4 -1 7 2 7 7 0 5 14 12 30 16 17 4 30 11 30 17 0 6 3 9
6 6 3 -4 29 4 59 17 29 13 56 21 59 18 3 -4 6 -1 6 5 0 7 9 12 20 12 11 0 20
4 20 8 0 5 6 9 13 10 19 1 39 8 72 22 40 18 35 16 73 25 17 4 32 12 32 18 0 6
3 8 6 4 4 -3 22 0 40 8 19 8 34 11 34 8 0 -3 7 0 15 7 8 7 15 9 15 5 0 -4 7
-2 15 5 12 10 38 17 83 22 6 1 12 6 12 11 0 6 3 7 6 4 4 -3 14 -2 23 2 9 5 30
11 46 14 17 3 44 10 60 17 17 7 41 14 55 15 14 2 26 4 28 5 1 1 7 4 12 5 6 1
11 3 13 5 1 1 9 3 17 5 8 2 26 6 40 9 14 3 36 8 50 11 14 4 39 8 55 10 17 2
32 5 35 6 3 1 8 1 13 0 4 0 7 3 7 7 0 4 8 8 18 9 18 1 76 11 162 28 14 2 36 6
50 9 14 2 43 7 65 12 22 4 56 8 75 10 19 1 35 3 35 4 0 1 16 3 35 5 19 1 53 6
75 9 22 4 67 9 100 12 33 2 85 7 115 9 30 3 115 7 189 9 73 3 134 6 136 8 8 8
151 2 157 -7z m4378 -8969 c0 -2 -11 -16 -25 -32 -14 -16 -25 -35 -25 -43 0
-8 -3 -12 -6 -8 -4 3 -23 -17 -44 -44 -44 -59 -113 -138 -187 -216 -29 -30
-53 -58 -53 -60 0 -6 -309 -313 -315 -313 -2 0 -19 -16 -38 -35 -19 -19 -37
-35 -40 -35 -4 0 -19 -12 -35 -27 -39 -38 -114 -101 -187 -158 -14 -11 -32
-25 -39 -32 -8 -7 -16 -9 -20 -6 -3 4 -6 -1 -6 -10 0 -10 -7 -17 -15 -17 -9 0
-18 -7 -21 -15 -4 -8 -12 -15 -20 -15 -7 0 -18 -8 -23 -17 -6 -10 -11 -13 -11
-8 0 7 -3 7 -8 0 -10 -14 -86 -70 -90 -67 -2 2 -9 -3 -15 -11 -16 -19 -280
-192 -289 -189 -5 1 -8 -2 -8 -7 0 -5 -8 -11 -17 -15 -10 -3 -36 -17 -58 -31
-22 -14 -51 -30 -65 -36 -13 -6 -27 -13 -30 -17 -3 -4 -18 -14 -35 -23 -16 -9
-56 -31 -87 -48 -32 -17 -58 -29 -58 -26 0 4 -7 -1 -16 -9 -8 -9 -19 -14 -24
-11 -4 3 -13 -2 -20 -10 -7 -8 -18 -15 -26 -15 -7 0 -19 -6 -26 -13 -7 -7 -17
-15 -23 -16 -5 -2 -28 -11 -50 -21 -22 -10 -44 -20 -50 -21 -5 -2 -40 -18 -78
-36 -37 -18 -70 -33 -73 -33 -2 0 -21 -7 -42 -16 -20 -10 -46 -19 -57 -21 -10
-2 -22 -8 -26 -14 -3 -6 -10 -10 -15 -10 -5 1 -22 -3 -39 -9 -16 -6 -31 -10
-33 -10 -1 0 -15 -6 -32 -15 -16 -8 -38 -15 -50 -15 -11 0 -20 -5 -20 -10 0
-6 -6 -10 -12 -9 -7 1 -20 -1 -28 -4 -53 -22 -312 -102 -322 -99 -4 1 -20 -3
-35 -10 -15 -6 -32 -12 -38 -13 -5 -1 -12 -3 -15 -4 -9 -5 -45 -12 -67 -14
-13 -1 -23 -5 -23 -9 0 -4 -9 -5 -20 -3 -11 2 -20 0 -20 -5 0 -4 -8 -7 -17 -5
-10 1 -22 0 -28 -3 -5 -3 -16 -7 -25 -8 -8 -1 -28 -6 -45 -9 -16 -4 -39 -9
-50 -10 -11 -2 -20 -4 -20 -5 0 -2 -20 -5 -75 -14 -19 -3 -48 -8 -65 -11 -16
-3 -42 -7 -57 -8 -15 -1 -28 -4 -28 -7 0 -5 -59 -12 -117 -14 -13 -1 -23 -3
-23 -6 0 -5 -71 -12 -142 -14 -21 -1 -38 -3 -38 -6 0 -3 -19 -6 -43 -6 -23 -1
-82 -5 -132 -8 -142 -11 -568 -13 -593 -4 -17 6 -21 5 -16 -4 4 -6 3 -8 -3 -5
-6 4 -53 9 -104 13 -146 9 -234 17 -324 29 -22 3 -56 7 -75 9 -19 2 -52 6 -72
10 -21 3 -55 9 -75 12 -21 3 -47 7 -58 10 -83 17 -104 20 -118 18 -9 -1 -17 1
-17 5 0 4 -17 8 -37 9 -20 1 -39 5 -42 9 -3 5 -15 9 -26 10 -11 1 -33 4 -50 8
-16 3 -38 7 -47 8 -10 1 -18 4 -18 7 0 3 -8 6 -17 6 -24 1 -51 8 -158 39 -49
15 -99 29 -110 32 -11 2 -27 7 -35 10 -8 3 -20 7 -27 9 -31 6 -89 28 -100 37
-7 5 -13 7 -13 4 0 -3 -29 5 -64 17 -36 13 -67 21 -70 18 -3 -3 -6 0 -6 6 0 7
-3 11 -7 10 -5 -1 -21 4 -38 11 -16 7 -37 14 -45 16 -8 2 -30 11 -48 20 -18 9
-38 18 -45 19 -16 4 -41 14 -112 46 -33 15 -89 40 -125 56 -36 15 -68 33 -72
39 -4 5 -8 6 -8 1 0 -5 -7 -3 -15 4 -8 7 -15 9 -15 4 0 -5 -4 -4 -8 1 -4 6
-45 30 -92 54 -47 24 -89 47 -94 52 -6 5 -16 9 -23 9 -8 0 -23 9 -35 20 -12
10 -25 17 -30 14 -4 -3 -8 -1 -8 4 0 5 -8 12 -17 16 -10 3 -25 10 -33 15 -8 5
-44 27 -80 48 -36 21 -71 44 -78 50 -7 7 -20 13 -28 13 -8 0 -14 5 -14 10 0 6
-7 10 -15 10 -8 0 -15 4 -15 9 0 5 -13 14 -30 21 -16 7 -30 16 -30 21 0 5 -6
9 -13 9 -8 0 -22 9 -32 20 -10 11 -21 17 -25 15 -5 -3 -10 -2 -12 3 -1 4 -52
43 -113 86 -60 44 -117 87 -126 95 -9 9 -29 25 -45 36 -15 11 -42 31 -58 45
-17 14 -37 29 -44 35 -7 5 -29 25 -49 43 -20 17 -40 32 -44 32 -5 0 -9 7 -9
16 0 8 -4 13 -8 10 -5 -3 -32 17 -60 44 -29 27 -52 46 -52 43 0 -3 -10 7 -22
23 -12 16 -28 33 -36 37 -31 20 -281 279 -394 410 -16 18 -36 41 -47 52 -15
17 -123 151 -153 192 -7 8 1062 11 4412 11 2431 0 4420 -1 4420 -2z"/>
<path d="M15661 16163 l-41 -48 41 -36 41 -35 -74 -85 c-40 -46 -87 -99 -103
-118 -17 -19 -50 -58 -75 -86 -25 -28 -70 -79 -100 -115 -30 -35 -62 -71 -70
-80 -8 -9 -58 -65 -110 -125 -52 -61 -107 -123 -122 -140 -16 -16 -28 -33 -28
-36 0 -4 -7 -10 -16 -13 -10 -4 -31 6 -55 25 l-39 31 -40 -43 -39 -44 37 -35
c40 -37 71 -65 189 -168 l71 -62 42 47 41 47 -38 32 c-35 30 -37 33 -22 50
122 144 293 334 299 334 11 0 95 -80 94 -88 -1 -4 -5 -32 -8 -62 -4 -30 -8
-66 -11 -80 -4 -29 -6 -40 -35 -250 -12 -85 -23 -156 -24 -157 -1 -1 -16 11
-33 27 l-32 30 -41 -47 -42 -48 40 -35 c22 -19 88 -78 147 -130 l108 -94 38
43 c22 24 39 47 39 51 0 4 -16 20 -36 35 -35 27 -35 27 -28 83 3 32 8 66 10
77 3 11 7 38 9 60 3 22 10 76 16 120 6 44 13 93 15 108 2 15 6 44 8 65 15 105
18 128 18 144 -1 15 15 25 53 34 12 3 150 44 379 113 93 28 171 51 175 51 3 0
21 -14 40 -32 l34 -32 39 43 c21 24 38 47 38 51 0 4 -41 43 -92 86 -51 44
-113 98 -138 121 -25 23 -50 43 -57 43 -6 0 -28 -19 -48 -42 l-36 -43 37 -31
37 -31 -67 -23 c-37 -12 -72 -23 -79 -24 -7 -1 -64 -19 -127 -39 -63 -20 -143
-45 -177 -55 l-62 -20 -54 48 -54 47 59 69 c33 38 75 85 92 104 17 19 57 65
90 102 l58 68 37 -30 36 -30 37 42 c21 23 38 45 38 48 0 4 -15 20 -33 36 -114
98 -166 144 -208 182 l-47 43 -41 -48z"/>
<path d="M4860 16076 c-57 -13 -97 -31 -165 -75 -40 -26 -58 -40 -124 -96 -20
-17 -58 -48 -86 -70 -27 -22 -52 -42 -55 -45 -5 -5 -96 -80 -134 -110 -10 -8
-30 -24 -44 -36 l-25 -21 32 -46 c18 -26 36 -47 40 -47 5 0 25 13 46 30 20 16
40 28 44 25 4 -2 41 -45 82 -96 41 -50 81 -99 89 -108 8 -9 42 -50 75 -91 33
-41 67 -84 77 -95 112 -133 348 -425 348 -431 0 -5 -17 -22 -37 -40 l-37 -32
35 -46 c19 -25 39 -44 46 -41 6 2 77 57 156 122 157 128 152 119 98 182 l-30
34 -39 -32 -40 -31 -131 160 -131 160 63 51 c89 74 137 94 194 80 25 -7 73
-27 107 -45 225 -122 358 -186 370 -179 28 16 185 148 185 156 1 5 -5 14 -11
21 -7 7 -22 25 -33 39 -11 15 -23 27 -28 27 -4 0 -26 -14 -48 -32 l-40 -32
-192 97 c-106 53 -202 98 -214 100 -34 5 -36 12 -14 56 60 116 25 233 -121
403 -58 68 -136 121 -200 136 -26 7 -48 12 -50 11 -2 0 -28 -6 -58 -13z m83
-190 c47 -23 139 -123 166 -182 43 -90 22 -157 -75 -244 -51 -46 -170 -140
-177 -140 -4 0 -32 33 -64 73 -32 39 -60 74 -63 77 -14 12 -180 219 -180 223
0 3 33 31 72 63 40 33 84 69 97 81 22 20 85 54 121 67 25 8 63 1 103 -18z"/>
<path d="M6282 15820 c-91 -41 -95 -124 -9 -217 48 -53 177 -3 177 69 0 38
-32 107 -62 134 -33 30 -61 34 -106 14z"/>
<path d="M5395 5816 c-19 -24 -35 -47 -34 -52 0 -5 18 -23 39 -40 37 -30 38
-32 22 -50 -10 -11 -24 -28 -32 -40 -8 -11 -31 -41 -52 -65 -20 -24 -105 -129
-188 -234 -83 -104 -161 -202 -173 -217 -12 -15 -62 -79 -112 -142 -49 -63
-94 -115 -99 -115 -4 -1 -25 13 -46 29 l-39 31 -24 -27 c-27 -29 -53 -72 -46
-77 12 -9 247 -195 264 -209 101 -85 361 -287 366 -285 7 2 147 172 178 216
l20 28 -51 42 -51 42 -31 -38 c-17 -21 -42 -51 -56 -67 l-26 -28 -111 88 c-61
49 -127 102 -147 117 -20 15 -36 31 -36 35 0 4 13 21 28 38 15 17 39 47 54 65
65 83 371 466 386 484 9 11 55 68 102 127 l84 106 56 -44 55 -45 37 43 c21 24
38 46 38 49 0 4 -76 68 -170 143 l-169 136 -36 -44z"/>
<path d="M14982 5786 l-47 -45 33 -33 c17 -19 32 -36 32 -38 0 -3 -33 -5 -73
-6 -62 0 -81 -5 -134 -33 -76 -41 -188 -149 -237 -229 -123 -203 -71 -376 208
-692 85 -96 226 -228 286 -268 106 -72 228 -91 335 -54 91 32 228 139 297 233
35 47 68 147 68 205 l0 46 49 -36 c27 -20 53 -36 58 -36 6 0 24 14 42 30 l31
30 -42 48 c-24 26 -45 49 -48 52 -3 3 -41 46 -85 95 -44 50 -87 97 -95 105 -8
8 -50 54 -93 103 -44 48 -82 87 -86 87 -3 0 -17 -10 -31 -23 -23 -21 -214
-191 -234 -208 -5 -4 11 -28 35 -53 l44 -46 70 65 c39 35 73 64 77 65 14 0
121 -128 146 -175 33 -62 37 -161 9 -213 -39 -72 -155 -176 -223 -199 -50 -17
-133 -10 -184 15 -65 32 -154 112 -281 253 -219 243 -268 361 -207 499 28 62
121 156 191 192 87 45 190 23 288 -60 l39 -34 50 42 c30 25 47 47 43 53 -6 10
-220 253 -260 295 -17 18 -19 16 -71 -32z"/>
<path d="M13217 4539 c-92 -47 -172 -90 -178 -96 -6 -6 1 -28 18 -60 l28 -51
49 25 c26 13 49 23 49 21 10 -20 358 -700 378 -737 10 -19 17 -36 15 -38 -2
-2 -75 41 -162 96 -162 102 -301 188 -334 206 -10 6 -35 22 -56 37 -22 14
-128 81 -238 149 l-198 123 -137 -69 -138 -70 20 -45 c28 -65 31 -67 83 -42
26 13 48 22 49 20 3 -4 117 -224 260 -503 65 -126 142 -276 171 -333 30 -56
54 -107 54 -112 0 -5 -20 -20 -45 -32 l-45 -23 25 -49 c14 -27 27 -51 30 -54
2 -2 83 35 180 84 194 98 189 92 144 168 l-21 35 -47 -24 -48 -24 -83 162
c-46 89 -109 212 -140 272 -120 231 -172 336 -169 340 3 3 240 -142 479 -294
25 -15 142 -88 260 -161 118 -73 221 -139 228 -145 11 -10 31 -3 103 34 49 25
89 50 89 55 0 4 -38 81 -84 170 -79 153 -177 344 -370 719 -47 92 -86 170 -86
172 0 2 20 14 45 26 25 12 45 25 45 28 -1 3 -13 29 -28 56 l-27 50 -168 -86z"/>
<path d="M7149 4491 c-34 -42 -67 -80 -73 -86 -6 -5 -28 -31 -49 -57 -21 -26
-43 -53 -50 -60 -7 -7 -32 -38 -57 -68 -25 -30 -49 -60 -55 -66 -5 -6 -113
-133 -239 -282 l-228 -271 -36 15 c-20 8 -39 11 -42 7 -10 -11 -44 -103 -39
-106 2 -2 78 -33 169 -70 107 -43 168 -63 174 -57 5 5 18 30 27 55 l17 46 -49
22 -49 22 71 85 c40 47 82 97 95 113 l23 28 203 -82 c274 -110 248 -96 243
-138 -2 -20 -7 -83 -10 -141 -3 -57 -8 -106 -10 -108 -2 -2 -25 3 -51 12 -26
9 -49 15 -50 13 -10 -10 -42 -107 -36 -111 5 -3 182 -75 329 -133 12 -5 53 73
53 101 0 7 -16 18 -36 25 l-35 13 6 106 c7 114 12 188 20 292 2 36 7 112 11
170 8 130 11 164 29 430 1 19 5 87 9 150 l7 116 -114 46 -115 45 -63 -76z
m117 -139 c-2 -4 -7 -59 -11 -122 -4 -63 -8 -131 -10 -150 -2 -19 -6 -84 -10
-145 -5 -60 -9 -121 -10 -135 -2 -14 -3 -35 -4 -47 -1 -20 -10 -18 -158 43
-87 35 -168 68 -180 74 -22 9 -12 23 177 250 111 132 203 240 206 240 3 0 3
-3 0 -8z"/>
<path d="M8648 3943 c-5 -102 -7 -98 37 -101 l41 -3 143 -385 143 -384 -6 -73
c-3 -39 -9 -108 -12 -152 -8 -99 -7 -99 -16 -106 -4 -3 -33 -2 -64 1 -36 4
-57 2 -59 -4 -9 -29 -12 -107 -4 -112 5 -3 48 -7 96 -10 49 -2 97 -6 108 -9
11 -2 63 -7 115 -11 52 -3 98 -8 102 -10 12 -7 20 16 24 72 l5 54 -46 1 c-25
1 -49 3 -55 4 -5 1 -15 3 -21 4 -7 1 -9 19 -5 54 3 28 8 84 11 122 10 124 14
155 26 178 10 19 188 327 349 602 46 79 47 80 88 81 23 0 44 3 46 5 3 3 7 30
9 62 4 56 3 57 -22 58 -14 1 -37 2 -51 4 -14 1 -59 5 -100 9 -41 3 -101 8
-132 11 -55 6 -58 5 -59 -17 0 -13 -2 -38 -5 -57 -5 -40 6 -51 54 -51 17 0 32
-2 32 -5 0 -3 -109 -199 -190 -340 -9 -16 -36 -65 -60 -108 -23 -43 -46 -75
-50 -70 -4 4 -14 28 -23 53 -8 25 -34 97 -57 160 -23 63 -45 126 -50 140 -4
14 -22 63 -39 110 -17 47 -31 89 -31 94 0 5 20 6 45 4 l45 -6 1 37 c0 20 2 46
5 58 2 12 0 24 -4 27 -4 2 -43 7 -87 11 -120 9 -185 15 -232 20 -41 5 -43 4
-45 -22z"/>
<path d="M11085 3885 c-38 -7 -83 -16 -100 -19 -16 -3 -74 -14 -128 -23 l-99
-16 7 -36 c14 -85 17 -92 31 -87 21 8 104 18 104 13 0 -2 5 -29 11 -58 5 -30
12 -65 14 -79 2 -14 6 -34 8 -45 3 -11 8 -40 12 -65 4 -25 9 -54 11 -65 5 -24
39 -209 59 -315 22 -123 24 -130 50 -270 13 -74 25 -140 25 -146 0 -6 -24 -15
-52 -20 -53 -9 -53 -9 -52 -45 2 -62 13 -91 32 -85 9 3 35 8 57 11 22 4 47 8
55 10 8 3 33 7 55 11 52 8 228 44 230 47 1 1 -3 27 -9 57 l-11 55 -40 -4 c-84
-9 -76 -18 -101 114 -13 66 -26 136 -29 155 -3 19 -7 42 -10 50 -2 8 -6 31 -9
50 -3 19 -12 71 -21 115 -8 44 -18 96 -21 115 -3 19 -12 69 -19 110 -8 41 -17
89 -20 105 -3 17 -12 66 -20 110 -8 44 -17 90 -19 101 -4 19 2 23 54 33 57 11
59 13 54 39 -9 47 -12 67 -13 80 -1 14 -4 14 -96 -3z"/>
</g>
</svg>
